<svg xmlns="http://www.w3.org/2000/svg" width="66.338" height="75.555" viewBox="0 0 66.338 75.555">
  <g id="Group_2399" data-name="Group 2399" transform="translate(-23.127 -40.354)">
    <path id="Path_543" data-name="Path 543" d="M47.8,72.519c0,.662.043,1.328-.011,1.986a4.247,4.247,0,0,0,.6,2.4,13.3,13.3,0,0,1-1.109,14.911.446.446,0,0,0-.072.5q3.5,8.6,6.992,17.2a1.329,1.329,0,0,1-.8,1.893q-2.031.83-4.066,1.651a1.328,1.328,0,0,1-1.909-.813q-3.165-7.779-6.327-15.559c-.043-.106-.09-.211-.145-.338-.35.1-.693.194-1.029.3a.261.261,0,0,0-.129.174,1.492,1.492,0,0,0-.007.315q0,8.477,0,16.953a2.493,2.493,0,0,1-.058.626,1.273,1.273,0,0,1-1.277.936q-2.309.009-4.618,0A1.287,1.287,0,0,1,32.5,114.3q0-8.73,0-17.459V96.43l-1.434-.566v.417q0,7.67,0,15.34a2.875,2.875,0,0,1-.046.629,1.268,1.268,0,0,1-1.209.983q-2.388.017-4.776,0a1.286,1.286,0,0,1-1.271-1.276c0-.105,0-.211,0-.316q0-11.45,0-22.9a6.963,6.963,0,0,0-.225-1.931,13.214,13.214,0,0,1-.41-3.819c.027-1.8,0-3.6,0-5.407a9.132,9.132,0,0,1,7.123-8.907,8.363,8.363,0,0,1,4.608.289,1.524,1.524,0,0,0,.3.083,10.492,10.492,0,0,1-3.047-5.283,11.551,11.551,0,0,1,.236-6.094,3.99,3.99,0,0,1-3.16-2.823.937.937,0,0,1,.435-1.219,5.852,5.852,0,0,1,3.814-.478,7.406,7.406,0,0,1,.731.264l.43-.588a4.14,4.14,0,0,0-1.789-.245A8.489,8.489,0,0,1,27,51.893a4.828,4.828,0,0,1-2.654-4.968,1.2,1.2,0,1,1,2.384.191,5.347,5.347,0,0,0,.005.755,2.474,2.474,0,0,0,1.863,2.1c-.058-.493-.128-.976-.169-1.462-.039-.462-.063-.925-.066-1.388a1.185,1.185,0,0,1,1.189-1.248,1.21,1.21,0,0,1,1.186,1.251c.072.942.186,1.883.324,2.818.07.47.113.464.578.421l.28-.028c-.024-.383-.057-.756-.068-1.13-.01-.347-.015-.7.009-1.042a1.156,1.156,0,0,1,1.282-1.1,1.2,1.2,0,0,1,1.087,1.249c0,.577.057,1.155.079,1.732.008.21.117.277.305.324.735.184,1.461.406,2.2.574a1.535,1.535,0,0,0,1.317-.338c.6-.5,1.118-1.086,1.685-1.622a.3.3,0,0,0,.078-.411c-.245-.488-.466-.99-.738-1.464a1.23,1.23,0,0,1,.32-1.726,1.206,1.206,0,0,1,1.708.47c.176.287.344.58.5.879s.284.6.437.933a2.08,2.08,0,0,0,.519-.244.416.416,0,0,0,.073-.375c-.355-.9-.737-1.786-1.1-2.682a2.3,2.3,0,0,1-.211-.746,1.179,1.179,0,0,1,2.207-.556c.391.779.737,1.581,1.1,2.374.039.084.068.173.1.263a2.325,2.325,0,0,0,.666-2.6,4.579,4.579,0,0,0-.444-.832,1.2,1.2,0,0,1,.266-1.684A1.188,1.188,0,0,1,47,40.9a5.075,5.075,0,0,1-.513,6.625,8.878,8.878,0,0,1-3.9,2.49,3.83,3.83,0,0,0-1.555,1.125l.66.314a3.947,3.947,0,0,1,2.049-1.564,12.179,12.179,0,0,1,1.828-.475.944.944,0,0,1,1.159.939,9.607,9.607,0,0,1-.026,1.606,2.974,2.974,0,0,1-1.265,2.221c.63.834,1.315,1.626,1.871,2.5a10.183,10.183,0,0,1,1.616,6.5,17.159,17.159,0,0,1-.517,2.433.511.511,0,0,0,.067.46,2.609,2.609,0,0,1,.333.708c.279,1,.539,2.013.8,3.023a3.831,3.831,0,0,1,.119.682A1.758,1.758,0,0,1,48.2,72.45C48.087,72.471,47.974,72.489,47.8,72.519Zm-2.653-.534c-.435-.1-.9-.2-1.356-.32a.444.444,0,0,0-.473.12c-.81.753-1.625,1.5-2.457,2.231a3.574,3.574,0,0,1-.888.589,1.809,1.809,0,0,1-2.46-.989,2.805,2.805,0,0,1-.2-.663c-.044-.283-.181-.408-.459-.372a2.537,2.537,0,0,1-1.667-.524,5.721,5.721,0,0,0-6.492.113,6.465,6.465,0,0,0-2.941,5.671c-.016,1.76,0,3.52.023,5.279a11.681,11.681,0,0,0,.1,1.951,10.747,10.747,0,0,0,8.107,9.009,1.361,1.361,0,0,1,1.152,1.5q0,7.322,0,14.644v.4h2.015v-5.426q0-4.744,0-9.489A1.329,1.329,0,0,1,38.4,94.262c.052-.008.1-.012.157-.021a10.908,10.908,0,0,0,7.074-16.808,2.38,2.38,0,0,1-.489-1.644,3.527,3.527,0,0,0,.008-.379C45.151,74.284,45.151,73.158,45.151,71.984Zm1.695-9.617c0-.147.01-.3,0-.442a9.374,9.374,0,0,0-3.7-6.786c-.524-.421-1.052-.84-1.594-1.237a7.215,7.215,0,0,0-1.067-.671,3.2,3.2,0,0,0-4.337,1.09,11.866,11.866,0,0,0-.856,1.714c-.095.2-.151.416-.251.611a9.48,9.48,0,0,0-.893,6.5,7.912,7.912,0,0,0,2.8,4.575.34.34,0,0,0,.465.05,1.878,1.878,0,0,1,1.4-.233q1.806.389,3.605.806a.43.43,0,0,0,.449-.114c.562-.525,1.123-1.052,1.7-1.557.475-.414.978-.795,1.463-1.2a.958.958,0,0,0,.3-.329A7.391,7.391,0,0,0,46.846,62.367ZM28.4,108.336c.009-.1.024-.181.024-.263q0-6.795-.007-13.589a.578.578,0,0,0-.181-.363c-.522-.5-1.06-.991-1.589-1.488a1.246,1.246,0,0,1-.152-.22l-.067.058v15.865ZM45.083,94.1l-1.7,1.162,5.163,12.7,1.861-.754ZM33.306,55.241a2.285,2.285,0,0,0-1.7-.156,1.243,1.243,0,0,0,1.219.606C33.114,55.67,33.289,55.58,33.306,55.241ZM43.34,52.6c.26.314.26.314.622.149a1.007,1.007,0,0,0,.708-1.075A2.061,2.061,0,0,0,43.34,52.6Z" fill="#8cc43f"/>
    <path id="Path_544" data-name="Path 544" d="M240.427,237.756c-.239-.22-.487-.43-.714-.661a1.326,1.326,0,1,1,1.878-1.87c.329.324.647.658,1.012,1.032.12-.418.217-.77.321-1.121a1.32,1.32,0,1,1,2.54.714c-.206.773-.429,1.541-.635,2.314a.391.391,0,0,0,.026.31c.757.776,1.526,1.539,2.279,2.292.662-.515,1.286-1.031,1.943-1.5a1.165,1.165,0,0,0,.518-.786,7.142,7.142,0,0,1,.508-1.24,1.287,1.287,0,0,0-.095-.126,9.381,9.381,0,0,1-2.328-5.681.264.264,0,0,0-.247-.292q-.449-.09-.893-.2a.665.665,0,0,1,.148-1.318c.336-.009.672,0,1.046,0a9.539,9.539,0,0,1,1.8-4.4,4.01,4.01,0,0,1-1.222-1.9,3.911,3.911,0,0,1,3.112-4.952c.609-.118,1.232-.157,1.845-.252a.8.8,0,0,0,.427-.2,14.066,14.066,0,0,1,4.114-3,6.925,6.925,0,0,1,4.295-.671,8.5,8.5,0,0,1,2.195.947,24.786,24.786,0,0,1,6.232,4.381.4.4,0,0,0,.078.048,3.315,3.315,0,1,1,1.064,6.006c-1.557-.345-2.4-1.5-2.578-3.549l-1.663-.35c.018.384.022.708.054,1.03a.5.5,0,0,0,.162.253c.325.331.675.638.983.983a3.913,3.913,0,0,1-1.784,6.359c-.166.051-.268.084-.262.3a9.227,9.227,0,0,1-1.9,5.927l-.131.179a6.242,6.242,0,0,1,.744.864,3.539,3.539,0,0,1,.384,1.055.633.633,0,0,0,.288.442,15.087,15.087,0,0,1-6.686,27.546,15.108,15.108,0,0,1-16.421-11.863,14.9,14.9,0,0,1,2.4-11.764c.047-.069.092-.139.159-.24-.455-.454-.94-.878-1.352-1.365a2.059,2.059,0,0,0-1.7-.785c-1.125-.009-2.249-.145-3.372-.238a1.34,1.34,0,0,1-1.31-1.256,1.3,1.3,0,0,1,1.015-1.347,4.009,4.009,0,0,1,.88,0c.26.008.52.034.78.051Zm6.719,6.77c-.057.072-.1.117-.132.168a12.409,12.409,0,0,0-1.916,9.114,12.7,12.7,0,0,0,25.2-1.466,12.455,12.455,0,0,0-5.3-10.99c-.114-.085-.32-.174-.42-.127-.224.1-.468.188-.465.568.023,2.709.012,5.418.012,8.128v.385h-5.275v-8.621h-.42c-1.919,0-3.837-.009-5.756,0a3.21,3.21,0,0,1-2.148-.583l-1.686,1.37c.625.623,1.213,1.2,1.787,1.785a1.325,1.325,0,1,1-1.885,1.863C248.207,245.6,247.685,245.068,247.146,244.526Zm3-12.761a1.562,1.562,0,0,0,0,.243,7.021,7.021,0,0,0,2.377,4.234.751.751,0,0,0,.456.141c2.572.008,5.144-.021,7.715.024a1.9,1.9,0,0,0,1.584-.683,6.812,6.812,0,0,0,1.9-5.3.515.515,0,0,0-.206-.3c-.387-.3-.8-.578-1.18-.886-.409-.328-.771-.719-1.2-1.018a12.551,12.551,0,0,0-3.886-1.777,11.371,11.371,0,0,0-4.021-.492c-.533.045-1.061.162-1.595.2a.531.531,0,0,0-.424.2,7.123,7.123,0,0,0-1.459,2.979c-.022.1-.03.2-.047.309.107.008.169.016.231.017,1.517.014,3.034.024,4.551.044a1.365,1.365,0,0,1,.517.1,1.512,1.512,0,0,1,.825,1.844,1.375,1.375,0,0,1-1.792,1.115c-.482-.111-.963-.224-1.445-.334Zm4.564-11.072c-.5.022-.963.024-1.423.068a12.506,12.506,0,0,0-1.373.205,1.274,1.274,0,0,0-1.077,1.544,1.3,1.3,0,0,0,1.629.954,8.5,8.5,0,0,1,1.218-.166,15.134,15.134,0,0,1,6.268,1.1,12.368,12.368,0,0,1,4.876,3.12,1.237,1.237,0,0,0,1.742.036,1.262,1.262,0,0,0,.132-1.742,8.453,8.453,0,0,0-1.051-1.046A18.889,18.889,0,0,0,254.706,220.694Zm19.031,1.719a1.331,1.331,0,0,0-1.321-1.33,1.322,1.322,0,0,0-.012,2.645A1.323,1.323,0,0,0,273.737,222.413Z" transform="translate(-186.26 -150.863)" fill="#6bba6e"/>
    <path id="Path_545" data-name="Path 545" d="M62.43,274.346c0,1.174,0,2.3,0,3.426a3.528,3.528,0,0,1-.008.379,2.38,2.38,0,0,0,.489,1.644A10.908,10.908,0,0,1,55.836,296.6c-.052.01-.1.013-.157.021a1.329,1.329,0,0,0-1.245,1.443q0,4.744,0,9.489v5.426H52.418v-.4q0-7.322,0-14.644a1.361,1.361,0,0,0-1.152-1.5,10.747,10.747,0,0,1-8.107-9.009,11.681,11.681,0,0,1-.1-1.951c-.019-1.76-.039-3.52-.023-5.279a6.465,6.465,0,0,1,2.941-5.671,5.721,5.721,0,0,1,6.492-.113,2.537,2.537,0,0,0,1.667.524c.279-.036.415.09.459.372a2.8,2.8,0,0,0,.2.663,1.809,1.809,0,0,0,2.46.989,3.574,3.574,0,0,0,.888-.589c.832-.729,1.647-1.478,2.457-2.231a.444.444,0,0,1,.473-.12C61.531,274.146,61.994,274.245,62.43,274.346ZM46.416,288.79a2.315,2.315,0,0,0,.553,1.635,1,1,0,0,0,1.589-.055,2.684,2.684,0,0,0,.014-3.126,1.01,1.01,0,0,0-1.653-.013A2.333,2.333,0,0,0,46.416,288.79Zm0-12.478a2.407,2.407,0,0,0,.507,1.591,1.007,1.007,0,0,0,1.614.018,2.664,2.664,0,0,0,0-3.2.99.99,0,0,0-1.547-.039A2.265,2.265,0,0,0,46.415,276.312Zm2.912,4.887a2.517,2.517,0,0,0,.363,1.384,1.047,1.047,0,0,0,1.908,0,2.575,2.575,0,0,0-.014-2.787,1.041,1.041,0,0,0-1.875-.006A2.414,2.414,0,0,0,49.328,281.2Zm-3.006,1.95a2.427,2.427,0,0,0-.462-1.512,1.024,1.024,0,0,0-1.717-.023,2.709,2.709,0,0,0,0,3.078,1.019,1.019,0,0,0,1.714-.028A2.453,2.453,0,0,0,46.322,283.149Z" transform="translate(-17.279 -202.362)" fill="#fff"/>
    <path id="Path_546" data-name="Path 546" d="M117.931,144.321a7.391,7.391,0,0,1-.513,2.778.958.958,0,0,1-.3.329c-.485.4-.988.783-1.463,1.2-.58.505-1.141,1.032-1.7,1.557a.43.43,0,0,1-.449.114q-1.8-.42-3.605-.806a1.878,1.878,0,0,0-1.4.233.34.34,0,0,1-.465-.05,7.912,7.912,0,0,1-2.8-4.575,9.48,9.48,0,0,1,.893-6.5c.1-.195.156-.412.251-.611a11.868,11.868,0,0,1,.856-1.714,3.2,3.2,0,0,1,4.337-1.09,7.215,7.215,0,0,1,1.067.671c.543.4,1.07.816,1.594,1.237a9.374,9.374,0,0,1,3.7,6.786C117.941,144.025,117.931,144.173,117.931,144.321Zm-7.029.09a3.1,3.1,0,0,0,2.415-1.216,1.519,1.519,0,0,0-.636-2.409,2.811,2.811,0,0,0-1.669-.192,2.932,2.932,0,0,0-2.19,1.389,1.463,1.463,0,0,0,.545,2.077A2.784,2.784,0,0,0,110.9,144.41Zm.721,2.279.034-.08a2.24,2.24,0,0,0,1.807-.882.671.671,0,0,0-.065-.962.684.684,0,0,0-.977.134.883.883,0,0,1-1.205.235.669.669,0,0,0-.907.239.629.629,0,0,0,.221.883A9.191,9.191,0,0,0,111.622,146.689Zm2.18-9.017a.99.99,0,1,0-.989.978A.991.991,0,0,0,113.8,137.673Zm-6.481,2.417a.982.982,0,1,0-.04-1.963.982.982,0,1,0,.04,1.963Z" transform="translate(-71.085 -81.954)" fill="#fff"/>
    <path id="Path_547" data-name="Path 547" d="M50.124,450.963H48.152V435.1l.067-.058a1.247,1.247,0,0,0,.152.22c.529.5,1.067.984,1.589,1.488a.578.578,0,0,1,.181.363q.014,6.795.007,13.589C50.148,450.782,50.133,450.864,50.124,450.963Z" transform="translate(-21.725 -342.627)" fill="#fff"/>
    <path id="Path_548" data-name="Path 548" d="M178.417,447.792l5.326,13.108-1.861.754-5.163-12.7Z" transform="translate(-133.334 -353.697)" fill="#fff"/>
    <path id="Path_549" data-name="Path 549" d="M89.146,151.616c-.018.339-.192.43-.476.449a1.243,1.243,0,0,1-1.219-.606A2.285,2.285,0,0,1,89.146,151.616Z" transform="translate(-55.84 -96.375)" fill="#fff"/>
    <path id="Path_550" data-name="Path 550" d="M176.379,127.136a2.061,2.061,0,0,1,1.33-.926,1.007,1.007,0,0,1-.708,1.075C176.639,127.45,176.639,127.45,176.379,127.136Z" transform="translate(-133.039 -74.531)" fill="#fff"/>
    <path id="Path_551" data-name="Path 551" d="M294.637,422.014c.539.541,1.061,1.076,1.6,1.6a1.325,1.325,0,1,0,1.885-1.863c-.574-.587-1.162-1.162-1.787-1.785l1.686-1.37a3.21,3.21,0,0,0,2.148.583c1.918-.013,3.837,0,5.756,0h.42v8.621h5.274v-.385c0-2.709.011-5.419-.012-8.128,0-.38.241-.463.465-.568.1-.047.306.042.42.127a12.455,12.455,0,0,1,5.3,10.99,12.7,12.7,0,0,1-25.2,1.466,12.409,12.409,0,0,1,1.916-9.114C294.537,422.13,294.58,422.086,294.637,422.014Z" transform="translate(-233.751 -328.35)" fill="#fff"/>
    <path id="Path_552" data-name="Path 552" d="M332.087,309.3l2.906.661c.482.11.963.223,1.445.334a1.375,1.375,0,0,0,1.792-1.115,1.512,1.512,0,0,0-.825-1.844,1.364,1.364,0,0,0-.517-.1c-1.517-.02-3.034-.03-4.551-.044-.062,0-.124-.009-.231-.017.017-.113.025-.213.047-.309a7.123,7.123,0,0,1,1.459-2.979.531.531,0,0,1,.424-.2c.534-.038,1.061-.155,1.595-.2a11.371,11.371,0,0,1,4.021.492,12.551,12.551,0,0,1,3.886,1.777c.428.3.79.69,1.2,1.018.383.308.793.583,1.18.886a.516.516,0,0,1,.206.3,6.812,6.812,0,0,1-1.9,5.3,1.9,1.9,0,0,1-1.584.683c-2.571-.045-5.143-.016-7.715-.024a.751.751,0,0,1-.456-.141,7.021,7.021,0,0,1-2.377-4.234A1.562,1.562,0,0,1,332.087,309.3Zm2.605-2.378a.974.974,0,0,0,.991-.972.99.99,0,1,0-1.98,0A.969.969,0,0,0,334.692,306.918Zm4.894-.28a.985.985,0,0,0,1.969-.01.991.991,0,0,0-1.009-.994A.977.977,0,0,0,339.585,306.638Zm-5.366,3.414a.659.659,0,1,0,.013,1.318.652.652,0,0,0,.652-.668A.64.64,0,0,0,334.219,310.052Zm5.079,1.855a.659.659,0,0,0-1.318,0,.67.67,0,0,0,.658.669A.662.662,0,0,0,339.3,311.907Zm-3.1-.343a.659.659,0,1,0-.645.668A.642.642,0,0,0,336.2,311.564Zm.859-.254a.659.659,0,0,0-.658.665.679.679,0,0,0,.673.658.656.656,0,0,0,.645-.675A.627.627,0,0,0,337.057,311.31Zm3.7.012a.635.635,0,0,0-.656-.653.655.655,0,1,0,.007,1.311A.626.626,0,0,0,340.754,311.321Z" transform="translate(-268.205 -228.393)" fill="#fff"/>
    <path id="Path_553" data-name="Path 553" d="M341.019,263.836a18.889,18.889,0,0,1,10.941,4.077,8.459,8.459,0,0,1,1.051,1.046,1.262,1.262,0,0,1-.132,1.742,1.237,1.237,0,0,1-1.742-.036,12.368,12.368,0,0,0-4.876-3.12,15.134,15.134,0,0,0-6.268-1.1,8.5,8.5,0,0,0-1.218.166,1.3,1.3,0,0,1-1.629-.954,1.274,1.274,0,0,1,1.077-1.544,12.521,12.521,0,0,1,1.373-.205C340.057,263.86,340.521,263.858,341.019,263.836Z" transform="translate(-272.574 -194.005)" fill="#fff"/>
    <path id="Path_554" data-name="Path 554" d="M493.561,268.11a1.323,1.323,0,0,1-1.333,1.314,1.322,1.322,0,1,1,.012-2.645A1.331,1.331,0,0,1,493.561,268.11Z" transform="translate(-406.085 -196.56)" fill="#fff"/>
    <path id="Path_555" data-name="Path 555" d="M68.7,376.614a2.333,2.333,0,0,1,.5-1.559,1.01,1.01,0,0,1,1.653.013,2.684,2.684,0,0,1-.014,3.126,1,1,0,0,1-1.589.055A2.315,2.315,0,0,1,68.7,376.614Z" transform="translate(-39.561 -290.186)" fill="#8cc43f"/>
    <path id="Path_556" data-name="Path 556" d="M68.692,282.033a2.265,2.265,0,0,1,.57-1.626.99.99,0,0,1,1.547.039,2.664,2.664,0,0,1,0,3.2,1.007,1.007,0,0,1-1.614-.018A2.406,2.406,0,0,1,68.692,282.033Z" transform="translate(-39.555 -208.083)" fill="#8cc43f"/>
    <path id="Path_557" data-name="Path 557" d="M90.765,318.977a2.416,2.416,0,0,1,.383-1.41,1.041,1.041,0,0,1,1.875.006,2.575,2.575,0,0,1,.014,2.787,1.047,1.047,0,0,1-1.908,0A2.519,2.519,0,0,1,90.765,318.977Z" transform="translate(-58.717 -240.141)" fill="#8cc43f"/>
    <path id="Path_558" data-name="Path 558" d="M50.5,333.8a2.451,2.451,0,0,1-.46,1.514,1.019,1.019,0,0,1-1.714.028,2.709,2.709,0,0,1,0-3.077,1.024,1.024,0,0,1,1.717.023A2.426,2.426,0,0,1,50.5,333.8Z" transform="translate(-21.458 -253.017)" fill="#8cc43f"/>
    <path id="Path_559" data-name="Path 559" d="M134.476,182.482a2.784,2.784,0,0,1-1.535-.351,1.463,1.463,0,0,1-.545-2.077,2.932,2.932,0,0,1,2.19-1.389,2.811,2.811,0,0,1,1.669.192,1.519,1.519,0,0,1,.636,2.409A3.1,3.1,0,0,1,134.476,182.482Z" transform="translate(-94.66 -120.026)" fill="#8cc43f"/>
    <path id="Path_560" data-name="Path 560" d="M145.853,211.553a9.188,9.188,0,0,1-1.093-.432.629.629,0,0,1-.221-.883.669.669,0,0,1,.907-.239.883.883,0,0,0,1.205-.235.684.684,0,0,1,.977-.134.671.671,0,0,1,.065.962,2.241,2.241,0,0,1-1.807.882Z" transform="translate(-105.316 -146.817)" fill="#8cc43f"/>
    <path id="Path_561" data-name="Path 561" d="M158.624,150.258a.99.99,0,1,1-1.979-.033.99.99,0,0,1,1.979.033Z" transform="translate(-115.907 -94.539)" fill="#8cc43f"/>
    <path id="Path_562" data-name="Path 562" d="M115.919,162.245a.982.982,0,1,1-.04-1.963.982.982,0,1,1,.04,1.963Z" transform="translate(-79.683 -104.109)" fill="#8cc43f"/>
    <path id="Path_563" data-name="Path 563" d="M345.358,316.786a.969.969,0,0,1-.989-.971.99.99,0,1,1,1.98,0A.974.974,0,0,1,345.358,316.786Z" transform="translate(-278.871 -238.26)" fill="#6bba6e"/>
    <path id="Path_564" data-name="Path 564" d="M388.967,321.009a.977.977,0,0,1,.961-1,.991.991,0,0,1,1.009.994.985.985,0,0,1-1.969.01Z" transform="translate(-317.587 -242.764)" fill="#6bba6e"/>
    <path id="Path_565" data-name="Path 565" d="M343.922,353.509a.64.64,0,0,1,.666.65.652.652,0,0,1-.652.668.659.659,0,1,1-.013-1.318Z" transform="translate(-277.907 -271.85)" fill="#6bba6e"/>
    <path id="Path_566" data-name="Path 566" d="M378.115,363.245a.662.662,0,0,1-.66.664.67.67,0,0,1-.658-.669.659.659,0,0,1,1.318,0Z" transform="translate(-307.021 -279.731)" fill="#6bba6e"/>
    <path id="Path_567" data-name="Path 567" d="M354.611,360.73a.659.659,0,1,1-.67-.644A.639.639,0,0,1,354.611,360.73Z" transform="translate(-286.619 -277.559)" fill="#6bba6e"/>
    <path id="Path_568" data-name="Path 568" d="M365.467,363.04a.627.627,0,0,1,.66.648.657.657,0,0,1-.645.676.679.679,0,0,1-.673-.658A.659.659,0,0,1,365.467,363.04Z" transform="translate(-296.615 -280.123)" fill="#6bba6e"/>
    <path id="Path_569" data-name="Path 569" d="M389.151,358.831a.626.626,0,0,1-.649.658.655.655,0,1,1-.007-1.311A.635.635,0,0,1,389.151,358.831Z" transform="translate(-316.603 -275.903)" fill="#6bba6e"/>
  </g>
</svg>
