<svg xmlns="http://www.w3.org/2000/svg" width="58.76" height="77.173" viewBox="0 0 58.76 77.173">
  <g id="Group_2397" data-name="Group 2397" transform="translate(0)">
    <path id="Path_528" data-name="Path 528" d="M170.209,446.974H128.948V419.111h41.261Zm-20.63-8.491a5.442,5.442,0,1,0-5.457-5.433A5.45,5.45,0,0,0,149.579,438.482Z" transform="translate(-120.197 -369.801)" fill="#fabe7f"/>
    <path id="Path_529" data-name="Path 529" d="M83.055,99.331A8.294,8.294,0,0,1,90,87.382a8.252,8.252,0,0,1-.2-7.3,8.008,8.008,0,0,1,3.361-3.709,8.263,8.263,0,0,1,11.45,11A8.16,8.16,0,0,1,111.29,91.5a8.077,8.077,0,0,1,.274,7.8c3.99.565,6.709,2.671,7.529,6.671.772,3.765-.794,6.667-3.974,8.816h11.567v6.684H67.924v-6.663H79.5c-3.478-2.409-4.915-5.578-3.793-9.663A8.156,8.156,0,0,1,83.055,99.331Zm15.623-3.7a5.491,5.491,0,1,0,5.43-5.486A5.515,5.515,0,0,0,98.679,95.629Zm-2.762-.012a5.478,5.478,0,1,0-5.475,5.5A5.484,5.484,0,0,0,95.917,95.616Zm1.37-6.632a5.478,5.478,0,1,0-5.461-5.5A5.47,5.47,0,0,0,97.286,88.984Zm13.76,24.074a5.485,5.485,0,1,0-5.5-5.452A5.524,5.524,0,0,0,111.046,113.057Zm-27.506,0a5.485,5.485,0,1,0-5.459-5.528A5.523,5.523,0,0,0,83.541,113.057Zm13.77-10.969a5.484,5.484,0,0,0-.029,10.969,5.484,5.484,0,1,0,.029-10.969ZM90.438,112.14a8.941,8.941,0,0,1-2.821,2.632h5.651A8.862,8.862,0,0,1,90.438,112.14Zm16.461,2.634a9.783,9.783,0,0,1-2.73-2.632,8.822,8.822,0,0,1-2.83,2.632Z" transform="translate(-67.924 -75.266)" fill="#fabe7f"/>
    <path id="Path_530" data-name="Path 530" d="M240.211,489.181a5.442,5.442,0,1,1,5.445-5.438A5.463,5.463,0,0,1,240.211,489.181Z" transform="translate(-210.829 -420.499)" fill="#fff"/>
    <path id="Path_531" data-name="Path 531" d="M282.379,184.493a5.491,5.491,0,1,1,5.5,5.487A5.518,5.518,0,0,1,282.379,184.493Z" transform="translate(-251.624 -164.13)" fill="#fff"/>
    <path id="Path_532" data-name="Path 532" d="M197.674,184.48a5.478,5.478,0,1,1-5.464-5.473A5.49,5.49,0,0,1,197.674,184.48Z" transform="translate(-169.681 -164.13)" fill="#fff"/>
    <path id="Path_533" data-name="Path 533" d="M240.052,105.477a5.478,5.478,0,1,1,5.5-5.361A5.462,5.462,0,0,1,240.052,105.477Z" transform="translate(-210.69 -91.759)" fill="#fff"/>
    <path id="Path_534" data-name="Path 534" d="M335.76,273.271a5.485,5.485,0,1,1,5.482-5.506A5.523,5.523,0,0,1,335.76,273.271Z" transform="translate(-292.637 -235.479)" fill="#fff"/>
    <path id="Path_535" data-name="Path 535" d="M144.213,273.27a5.485,5.485,0,1,1,5.523-5.464A5.519,5.519,0,0,1,144.213,273.27Z" transform="translate(-128.596 -235.478)" fill="#fff"/>
    <path id="Path_536" data-name="Path 536" d="M240.076,262.3a5.484,5.484,0,1,1-5.485,5.416A5.527,5.527,0,0,1,240.076,262.3Z" transform="translate(-210.689 -235.479)" fill="#fff"/>
    <path id="Path_537" data-name="Path 537" d="M208.062,332.395a8.862,8.862,0,0,0,2.83,2.632h-5.651A8.941,8.941,0,0,0,208.062,332.395Z" transform="translate(-185.549 -295.521)" fill="#fff"/>
    <path id="Path_538" data-name="Path 538" d="M306.487,335.04h-5.56a8.822,8.822,0,0,0,2.83-2.632A9.783,9.783,0,0,0,306.487,335.04Z" transform="translate(-267.512 -295.532)" fill="#fff"/>
  </g>
</svg>
