<svg xmlns="http://www.w3.org/2000/svg" width="78.745" height="70.682" viewBox="0 0 78.745 70.682">
  <g id="Group_2396" data-name="Group 2396" transform="translate(-59.112 -48.955)">
    <path id="Path_514" data-name="Path 514" d="M158.222,197.857c-.694-.117-1.374-.213-2.046-.347a29,29,0,0,1-7.239-2.487,1.107,1.107,0,0,1-.627-.71c-.305-.987-.692-1.952-.94-2.952a4.227,4.227,0,0,1,.429-3.049c.334-.631.688-1.254,1.073-1.855a4.621,4.621,0,0,0,.085-5.1c-.169-.3-.32-.613-.5-.9a5.291,5.291,0,0,1-.133-5.57q.558-1.1,1.144-2.182a4.7,4.7,0,0,0-.593-5.612c-.54-.666-1.138-1.286-1.662-1.964a4.493,4.493,0,0,1-.472-5.037,24.041,24.041,0,0,1,1.446-2.336,6.693,6.693,0,0,0,1.14-2.633,5.653,5.653,0,0,0-.28-2.463c-.262-.878-.579-1.742-.794-2.631a6.251,6.251,0,0,1,.717-4.452c.434-.829.995-1.593,1.508-2.379a.69.69,0,0,1,.294-.244,28.61,28.61,0,0,1,6.8-1.878,1.333,1.333,0,0,1,.17,0c-.1.468-.2.913-.278,1.363a7.9,7.9,0,0,0,.827,4.849c.421.854.839,1.711,1.293,2.548a7.533,7.533,0,0,1-.009,7.546c-.3.568-.568,1.157-.9,1.705a5.613,5.613,0,0,0,.031,6.15,29.707,29.707,0,0,1,1.493,3.041,4.711,4.711,0,0,1-.087,4.085c-.5,1.026-1.088,2.008-1.622,3.018-.36.683-.734,1.363-1.03,2.074a3.776,3.776,0,0,0,.114,3.222c.552,1.121,1.163,2.212,1.726,3.328a7.611,7.611,0,0,1,.99,3.614,7.867,7.867,0,0,1-.647,2.693c-.307.787-.636,1.567-.912,2.365A9.64,9.64,0,0,0,158.222,197.857Z" transform="translate(-74.079 -78.37)" fill="#98d4e1"/>
    <path id="Path_515" data-name="Path 515" d="M253.567,196.49a1.756,1.756,0,0,0-.069-1.736,7.553,7.553,0,0,1-.73-4.309,34.761,34.761,0,0,1,.813-3.468c.328-1.254.764-2.482,1.031-3.748a6.2,6.2,0,0,0-1.181-5.1c-.344-.472-.681-.949-1.022-1.423a3.207,3.207,0,0,1-.332-3.505c.483-.965,1.069-1.879,1.623-2.807.354-.593.755-1.158,1.094-1.759a4.3,4.3,0,0,0-.281-4.964,11.827,11.827,0,0,0-1.2-1.419,3.436,3.436,0,0,1-.9-3.517,11.133,11.133,0,0,1,1.3-2.965,23.346,23.346,0,0,0,1.219-2.18,4.645,4.645,0,0,0-.57-5.013,16.216,16.216,0,0,0-1.174-1.394,4.936,4.936,0,0,1-1.183-5,26.565,26.565,0,0,1,1.059-2.679c.078-.193.212-.233.423-.219a28.693,28.693,0,0,1,10.776,2.834c.128.063.257.124.384.19s.228.126.349.192a.3.3,0,0,1-.023.1,7.082,7.082,0,0,0-1.155,5.143c.156,1.345.458,2.672.692,4.008a7.87,7.87,0,0,1,.027,3.577,13.88,13.88,0,0,1-.864,2.068c-.25.526-.553,1.028-.854,1.528a4.763,4.763,0,0,0-.224,4.748c.526,1.1,1.172,2.149,1.79,3.205a5.873,5.873,0,0,1,.894,2.084,5.488,5.488,0,0,1-.41,2.761c-.32.858-.658,1.713-1.054,2.537a9,9,0,0,0-.468,6.742,36.013,36.013,0,0,1,.866,3.716,9.947,9.947,0,0,1,.045,1.815.829.829,0,0,1-.108.335q-2,4.13-4,8.256a.468.468,0,0,1-.232.235A27.925,27.925,0,0,1,253.567,196.49Z" transform="translate(-163.861 -76.853)" fill="#98d4e1"/>
    <path id="Path_517" data-name="Path 517" d="M69.7,226.454c-14.527-11.695-13.722-33.816.047-44.465a17.144,17.144,0,0,0,.017,2.233c.175,1.32.436,2.63.7,3.937a7.556,7.556,0,0,1-.9,5.677c-.332.536-.62,1.1-.929,1.65a4.751,4.751,0,0,0-.253,4.2,16.416,16.416,0,0,0,1.775,3.294,4.518,4.518,0,0,1,1.07,3.069,12.75,12.75,0,0,1-.576,2.382,20.208,20.208,0,0,1-.949,2.272,8.684,8.684,0,0,0-.469,6.432c.321,1.07.579,2.161.822,3.252a11.464,11.464,0,0,1-.092,4.3C69.876,225.262,69.794,225.839,69.7,226.454Z" transform="translate(0 -113.188)" fill="#98d4e1"/>
    <path id="Path_518" data-name="Path 518" d="M351.263,176.262a28.7,28.7,0,0,1,9,10.958,27.57,27.57,0,0,1,2.51,14.723c-.171-.346-.343-.691-.511-1.038-1.049-2.164-2.094-4.329-3.152-6.488a.647.647,0,0,0-.338-.284c-.188-.068-.313.036-.406.229q-2.394,4.971-4.8,9.934-1.3,2.684-2.6,5.365c-.036.074-.076.145-.143.271a4.656,4.656,0,0,1-.626-2.628,7.817,7.817,0,0,1,1.017-3.062c.351-.663.708-1.323,1.032-2a4.419,4.419,0,0,0-.453-4.757c-.511-.715-1.115-1.365-1.689-2.033A4.788,4.788,0,0,1,348.8,192a4.87,4.87,0,0,1,.676-2.272c.468-.788.989-1.544,1.483-2.317a4.851,4.851,0,0,0,.977-3.182,13.577,13.577,0,0,0-.518-2.289,12.56,12.56,0,0,1-.707-2.941A6.29,6.29,0,0,1,351.263,176.262Z" transform="translate(-246.47 -108.316)" fill="#98d4e1"/>
    <path id="Path_520" data-name="Path 520" d="M219.178,56.009c-2.176-2.347-.905-6.416,1.5-7.054-.066.351-.108.676-.19.99-.173.667-.422,1.32-.538,2a3.176,3.176,0,0,0,.761,2.527,11.012,11.012,0,0,1,5.43-1.636,3.565,3.565,0,0,1,3.588,2.221,1.924,1.924,0,0,1-.542,2.356,4.515,4.515,0,0,1-2.694.917,9.95,9.95,0,0,1-4.594-.556,4.958,4.958,0,0,0,1.154,4.609c-.415,0-.728-.013-1.039,0-.595.029-1.188.079-1.783.107a.4.4,0,0,1-.306-.1,8.741,8.741,0,0,1-1.535-3.579A3.869,3.869,0,0,1,219.178,56.009Zm3.488-.057a5.575,5.575,0,0,0,2.364.547,1.939,1.939,0,0,0,1.571-.631c.6-.719.359-1.406-.553-1.614A3.152,3.152,0,0,0,222.666,55.952Z" transform="translate(-135.237 0)" fill="#98d4e1"/>
    <g id="Group_2405" data-name="Group 2405" transform="translate(107.032 67.946) rotate(17)">
      <path id="Path_523" data-name="Path 523" d="M.766,0a8.639,8.639,0,0,1,.773,3.055,1.593,1.593,0,0,1-.1.52.652.652,0,0,1-.692.451.642.642,0,0,1-.654-.455A1.961,1.961,0,0,1,0,2.944,8.968,8.968,0,0,1,.766,0Z" transform="translate(20.467 16.575)" fill="#fff"/>
      <path id="Path_516" data-name="Path 516" d="M29.644,30.21c-.334.359-.644.72-.981,1.052a12.954,12.954,0,0,1-6.084,3.217,23.175,23.175,0,0,1-5.662.682c-1.692.009-3.388.038-5.077-.044a18.1,18.1,0,0,1-9.665-2.99c-.72-.5-1.349-1.128-2.021-1.7a.37.37,0,0,1-.086-.522Q7.257,15.1,14.437.285a.649.649,0,0,1,.349-.267c.2-.073.286.087.363.248Q22.058,14.536,28.97,28.8C29.2,29.274,29.423,29.747,29.644,30.21ZM11.226,16.659l-.171,0c-.206.748-.438,1.491-.606,2.248a3.018,3.018,0,0,0-.019,1.056.67.67,0,0,0,.727.636.66.66,0,0,0,.713-.65,4.491,4.491,0,0,0-.072-1.3C11.65,17.979,11.421,17.323,11.226,16.659Zm12.93,11.094-.145-.018c-.209.783-.442,1.561-.616,2.352a2.731,2.731,0,0,0,.005.987.669.669,0,0,0,.8.58c.4-.037.651-.307.674-.828A7.644,7.644,0,0,0,24.156,27.753ZM18.643,16.575a8.97,8.97,0,0,0-.765,2.944,1.96,1.96,0,0,0,.093.628.642.642,0,0,0,.654.455.652.652,0,0,0,.692-.451,1.589,1.589,0,0,0,.1-.52A8.639,8.639,0,0,0,18.643,16.575ZM14.934,5.118h-.121c-.2.681-.425,1.354-.577,2.044A4.431,4.431,0,0,0,14.171,8.4a.653.653,0,0,0,.643.644c.515.049.839-.285.85-.9A8.137,8.137,0,0,0,14.934,5.118Zm0,22.619-.115-.018c-.2.677-.429,1.347-.58,2.035a4.073,4.073,0,0,0-.064,1.27.7.7,0,0,0,1,.592.8.8,0,0,0,.485-.838A8,8,0,0,0,14.934,27.737Zm-9.22,0L5.6,27.708c-.2.706-.434,1.4-.593,2.12a4.01,4.01,0,0,0-.055,1.2.662.662,0,0,0,.7.627A.659.659,0,0,0,6.4,31.08a2.343,2.343,0,0,0,.044-.673A9.11,9.11,0,0,0,5.714,27.733Z" transform="translate(2.589)" fill="#72bbe1"/>
      <path id="Path_519" data-name="Path 519" d="M1.077,0c.806.592,1.566,1.209,2.382,1.74a20.646,20.646,0,0,0,8.155,2.99,49.529,49.529,0,0,0,8.385.3,24.435,24.435,0,0,0,7-1.069A15.585,15.585,0,0,0,33.538.137c.041-.041.09-.073.153-.123.37.765.741,1.511,1.085,2.269a.607.607,0,0,1-.042.429A7.492,7.492,0,0,1,32.27,5.675,15.415,15.415,0,0,1,26.263,8.3a28.842,28.842,0,0,1-6.594.725c-2.24-.005-4.483.019-6.718-.1A21.385,21.385,0,0,1,4.592,6.957,9.746,9.746,0,0,1,.269,3.233,1.272,1.272,0,0,1,.21,1.756,19.4,19.4,0,0,0,1.077,0Z" transform="translate(0 33.191)" fill="#72bbe1"/>
      <path id="Path_521" data-name="Path 521" d="M.833,0c.195.664.424,1.32.572,1.994a4.487,4.487,0,0,1,.072,1.3.659.659,0,0,1-.713.65.67.67,0,0,1-.727-.636A3.019,3.019,0,0,1,.056,2.252C.224,1.5.456.753.662,0Z" transform="translate(12.982 16.659)" fill="#fff"/>
      <path id="Path_522" data-name="Path 522" d="M.8.018a7.646,7.646,0,0,1,.722,3.073c-.023.521-.276.791-.674.828a.669.669,0,0,1-.8-.58,2.729,2.729,0,0,1-.005-.987C.217,1.561.449.783.659,0Z" transform="translate(25.942 27.735)" fill="#fff"/>
      <path id="Path_524" data-name="Path 524" d="M.778,0a8.137,8.137,0,0,1,.73,3.021c-.011.617-.335.951-.85.9a.652.652,0,0,1-.643-.644A4.428,4.428,0,0,1,.079,2.044C.232,1.354.46.681.656,0Z" transform="translate(16.745 5.117)" fill="#fff"/>
      <path id="Path_525" data-name="Path 525" d="M.782.018a8,8,0,0,1,.729,3.041.8.8,0,0,1-.485.838.7.7,0,0,1-1-.592,4.07,4.07,0,0,1,.064-1.27C.238,1.347.47.677.667,0Z" transform="translate(16.741 27.719)" fill="#fff"/>
      <path id="Path_526" data-name="Path 526" d="M.782.025A9.108,9.108,0,0,1,1.507,2.7a2.344,2.344,0,0,1-.044.673.659.659,0,0,1-.741.577.662.662,0,0,1-.7-.627,4.015,4.015,0,0,1,.055-1.2C.235,1.4.467.706.669,0Z" transform="translate(7.522 27.708)" fill="#fff"/>
    </g>
    <path id="Path_527" data-name="Path 527" d="M248.936,85.806a3.152,3.152,0,0,1,3.382-1.7c.912.207,1.152.895.553,1.614a1.939,1.939,0,0,1-1.571.631A5.575,5.575,0,0,1,248.936,85.806Z" transform="translate(-161.506 -29.854)" fill="#fff"/>
  </g>
</svg>
