<svg xmlns="http://www.w3.org/2000/svg" width="57.594" height="52.72" viewBox="0 0 57.594 52.72">
  <g id="Group_2395" data-name="Group 2395" transform="matrix(0.951, 0.309, -0.309, 0.951, 12.354, 0)">
    <path id="Path_505" data-name="Path 505" d="M11.161,24.837c-.5-.046-.993-.074-1.476-.138a10.367,10.367,0,0,1-5.092-2.192A15.76,15.76,0,0,1,.777,18.023C.535,17.617.317,17.2.09,16.787.058,16.729.033,16.669,0,16.6l3.177-1.527-1.556-2.89c.42-.195.829-.394,1.247-.576a17.578,17.578,0,0,1,5.147-1.4,12.026,12.026,0,0,1,7.744,1.619l.13.077a.3.3,0,0,0,.053.009c-.064-.214-.13-.416-.185-.62a7.72,7.72,0,0,1,.734-5.736A15.141,15.141,0,0,1,19.7,1.478c.532-.5,1.1-.965,1.659-1.459l2.657,2.2L26.7,0c.463.425.926.833,1.367,1.258a12.9,12.9,0,0,1,3.259,4.7,8.311,8.311,0,0,1,.108,5.751c-.017.05-.034.1-.05.151a.258.258,0,0,0,0,.055c.064-.035.119-.062.17-.093a10.692,10.692,0,0,1,6.393-1.451,18.926,18.926,0,0,1,6.232,1.608c.582.249,1.149.526,1.743.8l-1.558,2.9,3.208,1.543c-.354.59-.68,1.179-1.052,1.744a13.371,13.371,0,0,1-4.164,4.116,11.6,11.6,0,0,1-5.9,1.725c-.094,0-.187.008-.3.014.345.265.679.5.989.764a8.363,8.363,0,0,1,2.772,4.5,13.222,13.222,0,0,1,.153,5.227c-.087.578-.216,1.152-.328,1.727-.012.064-.033.127-.055.212l-3.591-.4-.672,3.133c-.357-.04-.71-.071-1.06-.119a18.6,18.6,0,0,1-4.777-1.274A10.216,10.216,0,0,1,23.7,32.862c-.007-.018-.016-.036-.03-.065a.3.3,0,0,0-.051.064A9.114,9.114,0,0,1,18.67,37.8a19.455,19.455,0,0,1-5.332,1.546c-.66.1-1.325.177-2.023.268l-.676-3.149-3.605.408c-.081-.4-.171-.795-.236-1.188a13.036,13.036,0,0,1-.1-3.769,9.476,9.476,0,0,1,4.362-7.005C11.092,24.892,11.122,24.867,11.161,24.837Zm11.67-5.445.057-.038a.992.992,0,0,0-.017-.169c-.327-1.191-.634-2.386-.995-3.569a5.648,5.648,0,0,0-.941-1.9,1.741,1.741,0,0,0-.508-.43.5.5,0,0,0-.716.259.9.9,0,0,0-.028.5,8.639,8.639,0,0,0,.5,1.34A25.2,25.2,0,0,0,22.79,19.3.441.441,0,0,1,22.832,19.392Zm2.646.96a.994.994,0,0,0,.146,0c1.184-.239,2.372-.461,3.548-.727a10.43,10.43,0,0,0,2.637-.9,2.161,2.161,0,0,0,.6-.46c.272-.311.066-.686-.379-.741a1.69,1.69,0,0,0-.311-.006,5.165,5.165,0,0,0-1.576.417A31.316,31.316,0,0,0,25.7,20.206C25.638,20.245,25.575,20.289,25.478,20.352Zm-2.554,2.274c-.046.025-.063.03-.071.039A24.5,24.5,0,0,0,20.09,26.84a6.023,6.023,0,0,0-.42,1.237.555.555,0,0,0,.33.707.7.7,0,0,0,.8-.3,5.622,5.622,0,0,0,.641-1.008A22.846,22.846,0,0,0,22.923,22.626Zm-1.117-.865-.028-.07c-.065.006-.132.008-.2.02-.916.178-1.836.344-2.747.54a15.149,15.149,0,0,0-2.872.856,5.719,5.719,0,0,0-.974.578.42.42,0,0,0-.157.554.559.559,0,0,0,.581.292,4.514,4.514,0,0,0,.812-.111,11.5,11.5,0,0,0,2.495-1C19.76,22.882,20.779,22.315,21.807,21.761Zm2.606.828a.8.8,0,0,0,0,.133c.3,1.135.588,2.275.92,3.4a6.9,6.9,0,0,0,.959,2.089,2.2,2.2,0,0,0,.515.509.522.522,0,0,0,.747-.132.621.621,0,0,0,.091-.4,4.831,4.831,0,0,0-.264-1.01,17.56,17.56,0,0,0-2.03-3.341C25.058,23.437,24.749,23.037,24.412,22.589Zm1.137-.914-.021.06c.321.188.639.38.963.563a25.71,25.71,0,0,0,3.967,1.931,4.012,4.012,0,0,0,1.424.306.607.607,0,0,0,.6-.3c.111-.227,0-.409-.171-.571a1.166,1.166,0,0,0-.252-.194,8.537,8.537,0,0,0-.855-.424,22.565,22.565,0,0,0-3.821-1.03C26.775,21.891,26.161,21.787,25.55,21.674ZM24.439,19.4c.034-.041.072-.08.1-.123.593-.826,1.221-1.634,1.765-2.484a23.478,23.478,0,0,0,1.166-2.162,1.532,1.532,0,0,0,.161-1,.534.534,0,0,0-.834-.31.892.892,0,0,0-.261.211,5.772,5.772,0,0,0-.551.806A19.783,19.783,0,0,0,24.439,19.4Zm-2.658.977.024-.045c-.057-.036-.111-.075-.17-.108-.824-.462-1.64-.936-2.477-1.379a14.221,14.221,0,0,0-2.775-1.177,5.081,5.081,0,0,0-.873-.157.634.634,0,0,0-.676.292.46.46,0,0,0,.216.611,7.815,7.815,0,0,0,1.2.636A21.079,21.079,0,0,0,19.792,20C20.453,20.134,21.118,20.25,21.78,20.374Z" fill="#ef807f"/>
    <path id="Path_506" data-name="Path 506" d="M5,11.068a.843.843,0,0,0-.066-.161A46.108,46.108,0,0,1,.826,3.883a16.892,16.892,0,0,1-.787-2.4,1.814,1.814,0,0,1,.044-.9A.759.759,0,0,1,1.212.113a2.871,2.871,0,0,1,.8.771A10.744,10.744,0,0,1,3.5,4.3c.569,2.121,1.052,4.266,1.568,6.4a2.015,2.015,0,0,1,.028.3Z" transform="translate(18.832 11.305)" fill="#fff"/>
    <path id="Path_507" data-name="Path 507" d="M0,5.1c.154-.113.253-.191.357-.261a47.467,47.467,0,0,1,7-4.082A7.378,7.378,0,0,1,9.839.008a2.343,2.343,0,0,1,.491.011.81.81,0,0,1,.6,1.33,3.5,3.5,0,0,1-.946.825A15.147,15.147,0,0,1,5.824,3.793C3.97,4.27,2.1,4.667.23,5.1A1.375,1.375,0,0,1,0,5.1Z" transform="translate(22.92 16.445)" fill="#fff"/>
    <path id="Path_508" data-name="Path 508" d="M5.166,0A45.226,45.226,0,0,1,2.828,8.706a10.356,10.356,0,0,1-1.011,1.807,1.034,1.034,0,0,1-1.26.531,1.034,1.034,0,0,1-.52-1.267A11.847,11.847,0,0,1,.7,7.557,44.871,44.871,0,0,1,5.055.071C5.067.053,5.093.046,5.166,0Z" transform="translate(18.808 19.334)" fill="#fff"/>
    <path id="Path_509" data-name="Path 509" d="M11.071.126C9.451,1.12,7.844,2.138,6.206,3.1A16.928,16.928,0,0,1,2.272,4.894a6.31,6.31,0,0,1-1.281.2A.858.858,0,0,1,.075,4.57a.813.813,0,0,1,.247-.993A8.855,8.855,0,0,1,1.858,2.541,21.77,21.77,0,0,1,6.387,1.005C7.824.654,9.274.356,10.718.036A2.975,2.975,0,0,1,11.027,0Z" transform="translate(13.308 20.373)" fill="#fff"/>
    <path id="Path_510" data-name="Path 510" d="M0,0c.53.8,1.017,1.521,1.481,2.253a32.573,32.573,0,0,1,3.2,5.992A9.635,9.635,0,0,1,5.1,10.055a1.237,1.237,0,0,1-.144.708A.765.765,0,0,1,3.779,11a3.735,3.735,0,0,1-.812-.913A13.236,13.236,0,0,1,1.455,6.342C.932,4.318.483,2.274,0,.239A1.63,1.63,0,0,1,0,0Z" transform="translate(23.381 19.277)" fill="#fff"/>
    <path id="Path_511" data-name="Path 511" d="M.033,0C1,.2,1.965.389,2.925.61A32.236,32.236,0,0,1,8.949,2.457a12.876,12.876,0,0,1,1.349.76,1.891,1.891,0,0,1,.4.348.9.9,0,0,1,.27,1.024.93.93,0,0,1-.947.542,5.683,5.683,0,0,1-2.245-.549A38.7,38.7,0,0,1,1.518,1.118C1.008.788.506.445,0,.108Z" transform="translate(22.989 20.349)" fill="#fff"/>
    <path id="Path_512" data-name="Path 512" d="M0,11.071A39.151,39.151,0,0,1,2.44,1.993,10.513,10.513,0,0,1,3.309.548,1.459,1.459,0,0,1,3.722.17.817.817,0,0,1,5.037.725a3.079,3.079,0,0,1-.254,1.794C4.206,3.828,3.644,5.153,2.945,6.4,2.088,7.921,1.1,9.37.162,10.851.114,10.928.054,11,0,11.071Z" transform="translate(23.415 11.308)" fill="#fff"/>
    <path id="Path_513" data-name="Path 513" d="M11.025,5.15c-1.045-.222-2.093-.43-3.134-.67A30.1,30.1,0,0,1,2.3,2.77,11.9,11.9,0,0,1,.412,1.629a.879.879,0,0,1-.34-1.1A.962.962,0,0,1,1.137.009,7.142,7.142,0,0,1,2.514.29,21.063,21.063,0,0,1,6.889,2.4c1.32.794,2.605,1.646,3.9,2.474.093.059.179.129.268.194Z" transform="translate(13.312 16.428)" fill="#fff"/>
  </g>
</svg>
