<svg xmlns="http://www.w3.org/2000/svg" width="55.037" height="58.182" viewBox="0 0 55.037 58.182">
  <g id="Group_2398" data-name="Group 2398" transform="translate(19.376) rotate(25)">
    <path id="Path_539" data-name="Path 539" d="M27.478,33.2a11.964,11.964,0,0,1,2.5,7.292c-.59-.053-1.148-.084-1.7-.157a12.949,12.949,0,0,1-4.52-1.371,6.683,6.683,0,0,1-2.576-2.327c-.014-.023-.033-.043-.1-.13l.855,9.346H17.416l.85-9.288c-.29.357-.542.707-.834,1.018a7.961,7.961,0,0,1-3.1,1.96,15.241,15.241,0,0,1-4.93.928,13.782,13.782,0,0,1,.629-3.832,9.031,9.031,0,0,1,1.853-3.418.8.8,0,0,0-.155-.067A11.972,11.972,0,0,1,4.2,28.535,20.6,20.6,0,0,1,.556,20.881c-.221-.835-.364-1.691-.54-2.538A1.726,1.726,0,0,1,0,18.132c3.526-1.235,7.053-1.57,10.605-.1.052-.6.083-1.177.156-1.75a18.159,18.159,0,0,1,1.672-5.413,43.347,43.347,0,0,1,4.52-7.327C17.83,2.357,18.744,1.2,19.663,0c.412.518.8,1,1.179,1.482a56.1,56.1,0,0,1,5.37,7.968,20.341,20.341,0,0,1,2.249,6.03c.148.832.214,1.679.318,2.528.384-.133.8-.293,1.23-.422a13.779,13.779,0,0,1,7.451-.027c.562.141,1.109.338,1.669.489.217.059.239.172.208.362a25.472,25.472,0,0,1-1.218,4.67,18.489,18.489,0,0,1-3.7,6.326,11.77,11.77,0,0,1-6.794,3.745A1.475,1.475,0,0,0,27.478,33.2ZM19.685,13.76c-.052.17-.08.256-.105.343a41.53,41.53,0,0,0-1.3,5.958,18.785,18.785,0,0,0-.073,5.426A6.774,6.774,0,0,0,19.244,28.4c.123.176.277.33.416.493A3.784,3.784,0,0,0,20.7,27.272a12.581,12.581,0,0,0,.585-5.044,33.809,33.809,0,0,0-1.1-6.64C20.035,15,19.866,14.422,19.685,13.76ZM6.91,23.531l-.048.092c.2.191.4.379.595.573a25.65,25.65,0,0,0,4.634,3.782,8.878,8.878,0,0,0,3.2,1.311,2.56,2.56,0,0,0,1.232-.033,1.567,1.567,0,0,0-.047-.2,2.91,2.91,0,0,0-.133-.3A5.338,5.338,0,0,0,14.764,27a17.539,17.539,0,0,0-4.871-2.491C8.908,24.155,7.905,23.855,6.91,23.531Zm25.558.045a.317.317,0,0,0-.081,0,29.9,29.9,0,0,0-5.809,2.174,9.825,9.825,0,0,0-3.106,2.313,2.764,2.764,0,0,0-.645,1.229,6.987,6.987,0,0,0,.757.044,7.121,7.121,0,0,0,3.047-.993A22.1,22.1,0,0,0,31.3,24.78C31.7,24.395,32.076,23.981,32.468,23.577Z" transform="translate(0 0)" fill="#f9a27e"/>
    <path id="Path_540" data-name="Path 540" d="M1.644,0c.181.662.35,1.243.5,1.829a33.808,33.808,0,0,1,1.1,6.64,12.581,12.581,0,0,1-.585,5.044,3.784,3.784,0,0,1-1.038,1.622c-.138-.163-.293-.317-.416-.493A6.774,6.774,0,0,1,.166,11.727,18.785,18.785,0,0,1,.24,6.3,41.531,41.531,0,0,1,1.539.343C1.564.256,1.592.17,1.644,0Z" transform="translate(18.041 13.76)" fill="#fff"/>
    <path id="Path_541" data-name="Path 541" d="M.048,0c.995.324,2,.624,2.983.976A17.539,17.539,0,0,1,7.9,3.467,5.338,5.338,0,0,1,9.478,5.219a2.908,2.908,0,0,1,.133.3,1.57,1.57,0,0,1,.047.2,2.56,2.56,0,0,1-1.232.033,8.879,8.879,0,0,1-3.2-1.311A25.65,25.65,0,0,1,.595.665C.4.471.2.283,0,.092Z" transform="translate(6.862 23.531)" fill="#fff"/>
    <path id="Path_542" data-name="Path 542" d="M9.641,0c-.392.4-.768.818-1.171,1.2A22.1,22.1,0,0,1,3.8,4.77a7.12,7.12,0,0,1-3.047.993A6.983,6.983,0,0,1,0,5.719,2.764,2.764,0,0,1,.645,4.49,9.825,9.825,0,0,1,3.751,2.177,29.9,29.9,0,0,1,9.56,0,.317.317,0,0,1,9.641,0Z" transform="translate(22.827 23.574)" fill="#fff"/>
  </g>
</svg>
