<svg id="Group_2394" data-name="Group 2394" xmlns="http://www.w3.org/2000/svg" width="39.759" height="66.977" viewBox="0 0 39.759 66.977">
  <path id="Path_451" data-name="Path 451" d="M219.548,128.663l2.262-1.579v4.952h-2.271v8.982l2.266-1.58v4.94H219.54v8.989l2.265-1.58v4.933H209.481V151.8l2.245,1.567V144.4h-2.244v-4.941l2.244,1.565v-8.975h-2.254V127.1l2.26,1.578c.007-.156.016-.259.016-.362,0-2.645,0-5.291.005-7.936a.514.514,0,0,0-.234-.461A11.688,11.688,0,0,1,207.932,115a17.673,17.673,0,0,1-1.337-6.272,17.323,17.323,0,0,1,2.584-10.244,8.728,8.728,0,0,1,4.163-3.6,6.2,6.2,0,0,1,6.066.8,11.132,11.132,0,0,1,3.854,4.991,18.392,18.392,0,0,1,1.376,8.592,17.089,17.089,0,0,1-2.032,7.229,10.674,10.674,0,0,1-2.934,3.481.414.414,0,0,0-.15.287q-.011,4.131,0,8.262A.857.857,0,0,0,219.548,128.663Zm-1.911,15.743h-4.01v8.771l2-1.4,2.007,1.4Zm-4.015-3.586c.107-.07.189-.119.267-.173.518-.361,1.039-.717,1.549-1.089a.28.28,0,0,1,.389,0c.519.376,1.048.738,1.574,1.1.068.047.142.086.232.14V132.06h-4.011Zm4.009-12.344v-7.422a6.1,6.1,0,0,1-4,.019v7.4l2-1.394Zm-.937-20.337,2.015,2.019,1.994-2-2.016-2.016Zm-2.8.035-2.015-2.041-2.009,2.006,2.032,2.024Zm2.794,6.762,2.035,2.036,1.985-1.97-2.024-2.057Zm-3.424-3.38,1.995,1.992,2.037-2-2.014-2.013Zm2.007-4.794,2.026-2.029-1.982-1.992-2.044,2.011Zm3.423-3.392,2-2-2.014-2.03-2.009,2.008Zm-6.815-.023,1.979-1.976-1.982-2.011-2,1.988Zm-.029,13.674L213.889,115l-2.047-2.086-1.744,1.749c-.243.243-.255.337-.017.579C210.667,115.84,211.263,116.43,211.853,117.021Zm1.395-19.131,2.046,2.058L217.34,97.9l-1.377-1.374a1.2,1.2,0,0,0-1.325-.019C214.164,96.964,213.7,97.436,213.248,97.89Zm4.119,20.521-2.04-2.048-2.1,2.077c.146.129.307.274.469.417s.329.376.535.45a3.691,3.691,0,0,0,1.891.2.417.417,0,0,0,.21-.084C216.678,119.091,217.02,118.751,217.367,118.411Zm4.756-15.692-2.029,2.029,2.038,2.048a1.132,1.132,0,0,0,.548-1.316C222.456,104.578,222.308,103.657,222.123,102.719Zm-.153,10.706a15.289,15.289,0,0,0,.713-3.237.3.3,0,0,0-.077-.205c-.155-.175-.323-.339-.463-.482l-2.049,2.049Zm-13.506-6.681,2.03-2-1.457-1.459A16.788,16.788,0,0,0,208.465,106.745Zm.044,2.839a16.215,16.215,0,0,0,.634,3.333l1.349-1.35Z" transform="translate(-184.929 -94.433)" fill="#f2a9a8"/>
  <path id="Path_452" data-name="Path 452" d="M44.216,128.77l2.258-1.572v4.939H44.209v8.985l2.263-1.573v4.931H44.185v.371q0,3.065,0,6.13a.913.913,0,0,1-1.04,1.029H37.46a.922.922,0,0,1-1.036-1.038q0-3.05,0-6.1V144.5H34.135v-4.953l2.263,1.579v-8.97H34.135v-4.959l2.288,1.6v-.346c0-2.655,0-5.31.005-7.965a.513.513,0,0,0-.232-.461,11.627,11.627,0,0,1-3.569-4.855,19.121,19.121,0,0,1,.3-14.924,11.444,11.444,0,0,1,3.084-4.068,6.482,6.482,0,0,1,8.48-.085A11.741,11.741,0,0,1,48.03,101a19.076,19.076,0,0,1-.365,14.868,11.184,11.184,0,0,1-3.317,4.215.418.418,0,0,0-.156.284q-.009,4.16,0,8.32A.649.649,0,0,0,44.216,128.77Zm-1.9,12.163v-8.769H38.305v8.766c.4-.28.763-.534,1.128-.785.284-.2.572-.541.855-.539s.594.337.885.534C41.546,140.392,41.912,140.652,42.317,140.933Zm.006-12.343v-7.441a6.124,6.124,0,0,1-4.016.028v7.4l2-1.392Zm0,21.56v-5.645H38.3v5.645Zm-7.756-48.714,2.02,2.025,2-2-2.032-2.031Zm5.391,5.41,2.007-2-2-2.021-2.019,2.026Zm3.42-7.408-2,2.019,2.029,2.032,1.972-2.047Zm-8.809,8.789,2.026,2.037,1.977-1.982-2.018-2.035Zm8.819,2.053,2-2-2.022-2.051-2.028,2.029Zm2.008,4.776-2.014-2-2.025,2.022,2.008,2.011Zm-7.45-3.4,2.014,2.013,2.015-2.022-2.009-2.005ZM36.536,113c-.6.6-1.186,1.206-1.8,1.791a.307.307,0,0,0-.026.5c.605.62,1.222,1.228,1.794,1.8l2.078-2.048Zm3.416-12.954,2.061-2.059-1.356-1.348a1.23,1.23,0,0,0-1.3-.07c-.5.47-.974.967-1.442,1.437ZM40,116.452l-2.086,2.1c.13.119.3.255.447.414a1.5,1.5,0,0,0,.933.57c.313.036.624.107.937.117a1.2,1.2,0,0,0,.712-.107,12.3,12.3,0,0,0,1.085-1.061Zm4.759-11.616,2.089,2.088a4.9,4.9,0,0,1,.386-.443.459.459,0,0,0,.157-.467c-.1-.552-.156-1.112-.264-1.661-.1-.506-.246-1-.373-1.511Zm0,6.779,1.891,1.891a16.615,16.615,0,0,0,.714-3.206.226.226,0,0,0-.036-.164c-.178-.19-.366-.371-.543-.547Zm-9.637-6.721-1.436-1.437a16.388,16.388,0,0,0-.543,3.41Zm-1.94,4.742a15.729,15.729,0,0,0,.624,3.359l1.367-1.368Z" transform="translate(-31.256 -85.032)" fill="#f2a9a8"/>
  <path id="Path_454" data-name="Path 454" d="M267.647,499.1v8.773l-2.007-1.4-2,1.4V499.1Z" transform="translate(-234.94 -449.129)" fill="#fff"/>
  <path id="Path_455" data-name="Path 455" d="M263.593,407.888v-8.76H267.6v8.746c-.09-.054-.164-.093-.232-.14-.526-.366-1.055-.729-1.574-1.1a.28.28,0,0,0-.389,0c-.51.371-1.031.728-1.549,1.089C263.782,407.769,263.7,407.818,263.593,407.888Z" transform="translate(-234.901 -361.5)" fill="#fff"/>
  <path id="Path_456" data-name="Path 456" d="M267.679,317.424l-2-1.395-2,1.394v-7.4a6.1,6.1,0,0,0,4-.018Z" transform="translate(-234.978 -283.381)" fill="#fff"/>
  <path id="Path_457" data-name="Path 457" d="M288.472,191.275l1.993-1.993,2.016,2.016-1.994,2Z" transform="translate(-256.708 -177.569)" fill="#fff"/>
  <path id="Path_458" data-name="Path 458" d="M237.26,191.219l-1.993,1.988-2.032-2.024,2.009-2.006Z" transform="translate(-208.293 -177.478)" fill="#fff"/>
  <path id="Path_459" data-name="Path 459" d="M288.452,246.335l2-1.991,2.024,2.057-1.985,1.97Z" transform="translate(-256.69 -225.831)" fill="#fff"/>
  <path id="Path_460" data-name="Path 460" d="M260.724,218.765l2.018-2.019,2.014,2.013-2.037,2Z" transform="translate(-232.386 -201.641)" fill="#fff"/>
  <path id="Path_461" data-name="Path 461" d="M262.78,165.729l-2-2.011,2.044-2.011,1.982,1.992Z" transform="translate(-232.436 -153.4)" fill="#fff"/>
  <path id="Path_462" data-name="Path 462" d="M290.326,138.2l-2.024-2.022,2.009-2.008,2.014,2.03Z" transform="translate(-256.559 -129.259)" fill="#fff"/>
  <path id="Path_463" data-name="Path 463" d="M235.311,138.319l-2-2,2-1.988,1.982,2.011Z" transform="translate(-208.358 -129.405)" fill="#fff"/>
  <path id="Path_464" data-name="Path 464" d="M235.474,248.2c-.59-.591-1.186-1.181-1.773-1.779-.237-.242-.225-.336.017-.579l1.744-1.749,2.047,2.086Z" transform="translate(-208.551 -225.608)" fill="#fff"/>
  <path id="Path_465" data-name="Path 465" d="M260.57,111.25c.454-.454.916-.926,1.39-1.386a1.2,1.2,0,0,1,1.325.019l1.377,1.374-2.045,2.051Z" transform="translate(-232.251 -107.793)" fill="#fff"/>
  <path id="Path_466" data-name="Path 466" d="M264.5,274.063c-.347.34-.689.68-1.039,1.013a.416.416,0,0,1-.21.084,3.691,3.691,0,0,1-1.891-.2c-.206-.074-.359-.3-.535-.45s-.324-.287-.469-.417l2.1-2.077Z" transform="translate(-232.067 -250.085)" fill="#fff"/>
  <path id="Path_467" data-name="Path 467" d="M318.029,161.537c.185.938.333,1.859.557,2.761a1.132,1.132,0,0,1-.548,1.316L316,163.566Z" transform="translate(-280.836 -153.25)" fill="#fff"/>
  <path id="Path_468" data-name="Path 468" d="M317.882,220.379l-1.876-1.875,2.049-2.049c.14.144.308.307.463.482a.3.3,0,0,1,.077.205A15.29,15.29,0,0,1,317.882,220.379Z" transform="translate(-280.841 -201.386)" fill="#fff"/>
  <path id="Path_469" data-name="Path 469" d="M221.835,169.62a16.789,16.789,0,0,1,.572-3.454l1.457,1.459Z" transform="translate(-198.3 -157.307)" fill="#fff"/>
  <path id="Path_470" data-name="Path 470" d="M222.192,217.12l1.983,1.983-1.349,1.35A16.215,16.215,0,0,1,222.192,217.12Z" transform="translate(-198.613 -201.969)" fill="#fff"/>
  <path id="Path_471" data-name="Path 471" d="M92.351,407.9c-.4-.281-.771-.541-1.144-.793-.292-.2-.588-.531-.885-.534s-.571.343-.855.539c-.364.251-.726.505-1.128.785v-8.766h4.012Z" transform="translate(-81.29 -352.002)" fill="#fff"/>
  <path id="Path_472" data-name="Path 472" d="M92.371,317.379l-2.017-1.4-2,1.392v-7.4a6.124,6.124,0,0,0,4.016-.028Z" transform="translate(-81.304 -273.821)" fill="#fff"/>
  <path id="Path_473" data-name="Path 473" d="M92.33,504.715H88.312V499.07H92.33Z" transform="translate(-81.266 -439.597)" fill="#fff"/>
  <path id="Path_474" data-name="Path 474" d="M58.041,136.056l1.989-2.008,2.032,2.031-2,2Z" transform="translate(-54.733 -119.652)" fill="#fff"/>
  <path id="Path_475" data-name="Path 475" d="M87.389,165.575l-2.016-2,2.019-2.026,2,2.021Z" transform="translate(-78.69 -143.761)" fill="#fff"/>
  <path id="Path_476" data-name="Path 476" d="M115.211,134.132l2,2-1.972,2.047-2.029-2.032Z" transform="translate(-103.092 -119.726)" fill="#fff"/>
  <path id="Path_477" data-name="Path 477" d="M58.066,191.252l1.985-1.98,2.018,2.035-1.977,1.982Z" transform="translate(-54.755 -168.056)" fill="#fff"/>
  <path id="Path_478" data-name="Path 478" d="M114.962,193.2l-2.046-2.019,2.028-2.029,2.022,2.051Z" transform="translate(-102.832 -167.948)" fill="#fff"/>
  <path id="Path_479" data-name="Path 479" d="M117.074,246.38l-2.032,2.031-2.008-2.011,2.025-2.022Z" transform="translate(-102.935 -216.356)" fill="#fff"/>
  <path id="Path_480" data-name="Path 480" d="M85.422,218.79l2.019-2.014,2.009,2.005L87.436,220.8Z" transform="translate(-78.733 -192.164)" fill="#fff"/>
  <path id="Path_481" data-name="Path 481" d="M60.229,243.953,62.276,246,60.2,248.044c-.571-.571-1.188-1.18-1.794-1.8a.307.307,0,0,1,.026-.5C59.042,245.159,59.632,244.55,60.229,243.953Z" transform="translate(-54.949 -215.985)" fill="#fff"/>
  <path id="Path_482" data-name="Path 482" d="M87.205,113.278l-2.038-2.039c.468-.469.943-.966,1.442-1.437a1.23,1.23,0,0,1,1.3.07l1.356,1.348Z" transform="translate(-78.509 -98.264)" fill="#fff"/>
  <path id="Path_483" data-name="Path 483" d="M87.288,271.9l2.027,2.029A12.3,12.3,0,0,1,88.231,275a1.2,1.2,0,0,1-.712.107c-.313-.009-.624-.081-.937-.117a1.5,1.5,0,0,1-.933-.57c-.146-.159-.317-.3-.447-.414Z" transform="translate(-78.54 -240.485)" fill="#fff"/>
  <path id="Path_484" data-name="Path 484" d="M140.63,163.685l1.994-1.994c.127.508.273,1,.373,1.511.109.55.167,1.109.264,1.661a.459.459,0,0,1-.157.467,4.9,4.9,0,0,0-.386.443Z" transform="translate(-127.123 -143.882)" fill="#fff"/>
  <path id="Path_485" data-name="Path 485" d="M140.639,218.36l2.027-2.026c.176.175.364.356.543.547a.226.226,0,0,1,.036.164,16.615,16.615,0,0,1-.714,3.206Z" transform="translate(-127.131 -191.777)" fill="#fff"/>
  <path id="Path_486" data-name="Path 486" d="M48.558,168.11l-1.979,1.973a16.389,16.389,0,0,1,.543-3.41Z" transform="translate(-44.687 -148.248)" fill="#fff"/>
  <path id="Path_487" data-name="Path 487" d="M46.89,216.709l1.992,1.991-1.367,1.368A15.73,15.73,0,0,1,46.89,216.709Z" transform="translate(-44.959 -192.105)" fill="#fff"/>
</svg>
