<svg xmlns="http://www.w3.org/2000/svg" width="62.864" height="50.452" viewBox="0 0 62.864 50.452">
  <g id="笑顔の赤ちゃんイラスト2" transform="translate(0 0)">
    <path id="Path_593" data-name="Path 593" d="M170.681,245.785a1.737,1.737,0,1,0-1.737,1.737A1.737,1.737,0,0,0,170.681,245.785Z" transform="translate(-146.59 -218.822)" fill="#afafaf"/>
    <path id="Path_594" data-name="Path 594" d="M308.747,244.048a1.737,1.737,0,1,0,1.738,1.737A1.737,1.737,0,0,0,308.747,244.048Z" transform="translate(-268.236 -218.822)" fill="#afafaf"/>
    <path id="Path_595" data-name="Path 595" d="M60.657,72.684A7.518,7.518,0,0,0,55.869,70.5a25.2,25.2,0,0,0-49.307.043,7.536,7.536,0,0,0,.978,15.008c.147,0,.286-.021.43-.03A25.2,25.2,0,0,0,54.481,85.5a7.349,7.349,0,0,0,.844.054,7.539,7.539,0,0,0,5.331-12.87ZM34.97,54.358a4.851,4.851,0,0,1,.383.5,7.429,7.429,0,0,1,1.107,4.215,17.925,17.925,0,0,1-1.259,6.1,20.885,20.885,0,0,1-5.556-6.322,9.359,9.359,0,0,1-1.217-4.337c0-.113.005-.2.011-.3a20.561,20.561,0,0,1,6.532.134ZM27.8,59.831a18.508,18.508,0,0,0,2.184,3.2c-.94-.38-1.883-.736-2.769-1.111a11.021,11.021,0,0,1-3.741-2.3,5.021,5.021,0,0,1-1.062-1.653,6.158,6.158,0,0,1-.384-1.891A21.6,21.6,0,0,1,26.342,54.6,11.481,11.481,0,0,0,27.8,59.831ZM58.2,80.885a4.032,4.032,0,0,1-4.215.955l-1.647-.579-.573,1.649a21.748,21.748,0,0,1-41.045.112l-.54-1.527-1.561.429a4.057,4.057,0,1,1-1.076-7.969c.071,0,.177.005.323.017l1.614.127.243-1.6A21.789,21.789,0,0,1,20.042,57.115a7.739,7.739,0,0,0,.443,1.65,7.042,7.042,0,0,0,1.3,2.1,10.691,10.691,0,0,0,3.322,2.386c1.834.9,3.813,1.524,5.476,2.3a11.13,11.13,0,0,1,2.194,1.289,5.19,5.19,0,0,1,1.438,1.68,1.043,1.043,0,0,0,1.874-.045,22.78,22.78,0,0,0,2.456-9.4,10.387,10.387,0,0,0-.736-4.011A21.689,21.689,0,0,1,52.726,72.545l.256,1.728,1.727-.264a4.183,4.183,0,0,1,.616-.053A4.059,4.059,0,0,1,58.2,80.885Z" transform="translate(0 -50.546)" fill="#afafaf"/>
    <path id="Path_596" data-name="Path 596" d="M193.956,323.508a4.077,4.077,0,0,1-6.616,0,.633.633,0,0,0-1.026.742,5.343,5.343,0,0,0,8.668,0,.633.633,0,0,0-1.026-.741Z" transform="translate(-159.217 -286.359)" fill="#afafaf"/>
  </g>
</svg>
