<svg xmlns="http://www.w3.org/2000/svg" width="46.15" height="73.001" viewBox="0 0 46.15 73.001">
  <g id="Group_1949" data-name="Group 1949" transform="translate(-65 -1572.5)">
    <g id="Path_177" data-name="Path 177" transform="translate(65 1572.5)" fill="#fff">
      <path d="M 45.64990234375 72.18080902099609 L 23.07325172424316 60.54570770263672 L 22.84189033508301 60.42647933959961 L 22.61152076721191 60.54759979248047 L 0.5000011920928955 72.17319488525391 L 0.5000011920928955 0.4999982714653015 L 45.64990234375 0.4999982714653015 L 45.64990234375 72.18080902099609 Z" stroke="none"/>
      <path d="M 1 1 L 1 71.34540557861328 L 22.83958053588867 59.86278915405273 L 45.14990234375 71.36063385009766 L 45.14990234375 1 L 1 1 M 0 0 L 46.14990234375 0 L 46.14990234375 73.0009765625 L 22.84420204162598 60.99015808105469 L 0 73.0009765625 L 0 0 Z" stroke="none" fill="#cb3a82"/>
    </g>
    <g id="Group_1948" data-name="Group 1948" transform="translate(-96.791 1280.378)">
      <path id="Path_338" data-name="Path 338" d="M199.733,319.331v1.742c-.037.188-.089.374-.109.563a15.107,15.107,0,0,1-2.789,7.284c-2.844,3.983-6.827,6.378-11.324,8.022a2.134,2.134,0,0,1-1.346-.014,26.057,26.057,0,0,1-7.554-4.117,16.659,16.659,0,0,1-5.917-8.4c-.317-1.087-.468-2.222-.694-3.336v-1.742a3.483,3.483,0,0,0,.139-.426,8.175,8.175,0,0,1,5.286-6.537,8.341,8.341,0,0,1,8.969,1.855c.154.136.306.273.467.417.364-.318.672-.61,1-.873a8.371,8.371,0,0,1,13.262,3.469C199.383,317.914,199.533,318.632,199.733,319.331Zm-25.99.953a11.851,11.851,0,0,0,3.213,7.788A21.283,21.283,0,0,0,183.5,332.7a2.573,2.573,0,0,0,2.76-.025c.358-.225.765-.372,1.14-.571a17.556,17.556,0,0,0,6.341-5.227,10.728,10.728,0,0,0,2.185-7.222,4.544,4.544,0,0,0-6.437-3.669,9.164,9.164,0,0,0-3.562,3.4c-.854,1.356-1.273,1.363-2.107.019-.061-.1-.124-.2-.187-.293a9.146,9.146,0,0,0-2.809-2.806,4.272,4.272,0,0,0-4.812-.1A4.581,4.581,0,0,0,173.744,320.284Z" fill="#cb3a82"/>
      <path id="Path_339" data-name="Path 339" d="M202.234,348.687A4.581,4.581,0,0,1,204.5,344.6a4.272,4.272,0,0,1,4.812.1,9.145,9.145,0,0,1,2.809,2.806c.063.1.126.195.187.293.834,1.344,1.253,1.337,2.107-.019a9.164,9.164,0,0,1,3.562-3.4,4.544,4.544,0,0,1,6.437,3.669,10.728,10.728,0,0,1-2.185,7.222,17.556,17.556,0,0,1-6.341,5.227c-.376.2-.782.346-1.14.571a2.573,2.573,0,0,1-2.76.025,21.283,21.283,0,0,1-6.542-4.624A11.851,11.851,0,0,1,202.234,348.687Z" transform="translate(-28.49 -28.403)" fill="#fff"/>
    </g>
  </g>
</svg>
