<svg xmlns="http://www.w3.org/2000/svg" width="59.211" height="46.954" viewBox="0 0 59.211 46.954">
  <g id="Group_4385" data-name="Group 4385" transform="translate(0 -52.992)">
    <path id="Path_2114" data-name="Path 2114" d="M21.226,269.05H5.834C2.612,269.05,0,272.061,0,275.283v9.9a5.834,5.834,0,0,0,5.834,5.834H21.227a5.834,5.834,0,0,0,5.834-5.834v-9.9C27.061,272.061,24.449,269.05,21.226,269.05Zm-3.752,12.909H9.587a1.725,1.725,0,1,1,0-3.451h7.888a1.725,1.725,0,0,1,0,3.451Z" transform="translate(0 -191.072)" fill="#afafaf"/>
    <path id="Path_2115" data-name="Path 2115" d="M21.5,52.992H5.565A5.565,5.565,0,0,0,0,58.557V68.994A5.565,5.565,0,0,0,5.565,74.56h15.93a5.566,5.566,0,0,0,5.566-5.565V58.557A5.565,5.565,0,0,0,21.5,52.992ZM17.474,65.5h-.493a1.726,1.726,0,0,0-1.725,1.725v.493a1.726,1.726,0,0,1-1.725,1.725h0A1.726,1.726,0,0,1,11.8,67.72v-.493A1.725,1.725,0,0,0,10.079,65.5H9.586a1.725,1.725,0,0,1,0-3.451h.493A1.725,1.725,0,0,0,11.8,60.325v-.493a1.725,1.725,0,0,1,1.725-1.725h0a1.725,1.725,0,0,1,1.725,1.725v.493a1.725,1.725,0,0,0,1.725,1.725h.493a1.725,1.725,0,0,1,0,3.451Z" transform="translate(0 0)" fill="#afafaf"/>
    <path id="Path_2116" data-name="Path 2116" d="M291.993,52.992h-15.88a6.05,6.05,0,0,0-6.05,6.049V93.9a6.05,6.05,0,0,0,6.05,6.049h15.88a6.05,6.05,0,0,0,6.05-6.05V59.041A6.049,6.049,0,0,0,291.993,52.992Zm-3.862,28.854h-8.156a1.784,1.784,0,0,1,0-3.568h8.156a1.784,1.784,0,1,1,0,3.568Zm0-7.186h-8.156a1.784,1.784,0,0,1,0-3.568h8.156a1.784,1.784,0,1,1,0,3.568Z" transform="translate(-238.831 0)" fill="#afafaf"/>
  </g>
</svg>
