<svg xmlns="http://www.w3.org/2000/svg" width="46" height="49.377" viewBox="0 0 46 49.377">
  <g id="Group_4387" data-name="Group 4387" transform="translate(-17.509)">
    <path id="Path_2120" data-name="Path 2120" d="M56.142,13.473c-.08-.072-.146-.157-.222-.233a5.645,5.645,0,0,1-.412-.438c-.021-.027-.037-.058-.057-.085a5.564,5.564,0,0,1-.45-.67c-.072-.128-.123-.268-.184-.4s-.138-.273-.19-.417A5.474,5.474,0,0,1,54.3,9.375a5.41,5.41,0,0,1,.427-2.11c0-.012,0-.018.006-.024a4.232,4.232,0,0,1,.334-.733c.026-.044.045-.088.073-.132h0l0-.008a3.138,3.138,0,0,0-.537-.043H21.474a3.962,3.962,0,0,0-1.933,7.422V54.861H58.574V14.73a5.455,5.455,0,0,1-2.258-1.123C56.26,13.559,56.2,13.521,56.142,13.473ZM54.915,51.2H23.2V14.254H54.61a2.475,2.475,0,0,0,.295-.018h.01V51.2Z" transform="translate(0 -5.715)" fill="#afafaf"/>
    <path id="Path_2121" data-name="Path 2121" d="M425.285,3.027a3.658,3.658,0,1,0-3.6,4.292,3.6,3.6,0,0,0,.57-.051l.04,0V49.377l3.1-4.244V3.075C425.4,3.055,425.355,3.039,425.285,3.027Z" transform="translate(-361.89)" fill="#afafaf"/>
    <path id="Path_2122" data-name="Path 2122" d="M144.9,163.55h-3.734l-2.457-.005,4.479-4.934q.405-.449.732-.845a4.718,4.718,0,0,0,.541-.8,3.883,3.883,0,0,0,.327-.845,4.007,4.007,0,0,0,.112-.995,4.571,4.571,0,0,0-.36-1.849,3.919,3.919,0,0,0-1-1.39,4.521,4.521,0,0,0-1.543-.877,6.352,6.352,0,0,0-3.887-.011,4.559,4.559,0,0,0-1.555.877,4.026,4.026,0,0,0-1.036,1.4,4.49,4.49,0,0,0-.37,1.832c0,.011,0,.021,0,.032h0s0,0,0,.008h2.929a2.259,2.259,0,0,1,.169-.93,1.579,1.579,0,0,1,.451-.6,1.744,1.744,0,0,1,.631-.321,2.659,2.659,0,0,1,.709-.1,1.892,1.892,0,0,1,1.442.524,1.925,1.925,0,0,1,.5,1.379,2.182,2.182,0,0,1-.192.941,3.77,3.77,0,0,1-.642.9l-5.993,6.607v2.5H144.9v-2.5Z" transform="translate(-106.29 -136.166)" fill="#afafaf"/>
    <path id="Path_2123" data-name="Path 2123" d="M272.233,154.721v1.829l0,1.159,0,0v.01l2-1.649,1.268-1.039v12.216h0v.008h2.929V152.027H275.5Z" transform="translate(-230.154 -137.366)" fill="#afafaf"/>
    <path id="Path_2124" data-name="Path 2124" d="M152.848,363.346l-.469,1.776-.4,1.5-1.013-3.274h-.813l-.553,1.787-.467,1.487-.857-3.274h-.888l-.238,0v0h-.008l1.485,5.211h.907l.565-1.743.463-1.409,1.021,3.152h.907l1.169-4.082.324-1.121h0l0-.008Z" transform="translate(-117.131 -328.303)" fill="#afafaf"/>
    <path id="Path_2125" data-name="Path 2125" d="M233.385,363.367v5.211h3.665v-.908h-2.579V366.4h2.2V365.5h-2.2v-1.222h2.579v-.907Z" transform="translate(-195.057 -328.324)" fill="#afafaf"/>
    <path id="Path_2126" data-name="Path 2126" d="M294.515,364.893a1.75,1.75,0,0,0-.106-.41,1.576,1.576,0,0,0-.2-.355,1.8,1.8,0,0,0-.7-.578,2.373,2.373,0,0,0-.977-.183h-2.009v5.211h2.009a2.375,2.375,0,0,0,.977-.183,1.807,1.807,0,0,0,.7-.578,1.571,1.571,0,0,0,.2-.355,1.747,1.747,0,0,0,.106-.409,4.539,4.539,0,0,0,.039-.49q.007-.267.008-.589t-.008-.59A4.532,4.532,0,0,0,294.515,364.893Zm-1.145,2.258a.664.664,0,0,1-.121.2,1.008,1.008,0,0,1-.813.322h-.829v-3.4h.829a1.008,1.008,0,0,1,.813.322.654.654,0,0,1,.121.2,1.25,1.25,0,0,1,.066.267,3.516,3.516,0,0,1,.031.381c0,.149.008.326.008.531s0,.382-.008.53a3.507,3.507,0,0,1-.031.381A1.256,1.256,0,0,1,293.37,367.151Z" transform="translate(-246.683 -328.324)" fill="#afafaf"/>
  </g>
</svg>
