<svg id="Group_4391" data-name="Group 4391" xmlns="http://www.w3.org/2000/svg" width="53" height="53" viewBox="0 0 53 53">
  <path id="Path_2143" data-name="Path 2143" d="M26.5,0A26.5,26.5,0,1,0,53,26.5,26.53,26.53,0,0,0,26.5,0Zm0,50.18A23.68,23.68,0,1,1,50.18,26.5,23.684,23.684,0,0,1,26.5,50.18Z" fill="#afafaf"/>
  <path id="Path_2144" data-name="Path 2144" d="M215.89,55.251v.022l.758-.655.49-.41v4.908h1.121V52.988h-1.121l-1.248,1.079v.722l-.011.471Z" transform="translate(-193.532 -47.503)" fill="#afafaf"/>
  <path id="Path_2145" data-name="Path 2145" d="M263.78,57.691h-1.446l-.914-.011,1.7-1.978c.1-.12.2-.232.275-.338a2.114,2.114,0,0,0,.211-.324,2.173,2.173,0,0,0,.127-.339,1.744,1.744,0,0,0,.042-.4,1.958,1.958,0,0,0-.141-.748,1.567,1.567,0,0,0-.381-.557,1.655,1.655,0,0,0-.592-.353,2.13,2.13,0,0,0-.747-.126,2.3,2.3,0,0,0-.74.12,1.779,1.779,0,0,0-.592.353,1.592,1.592,0,0,0-.395.564,1.814,1.814,0,0,0-.137.706c0,.011,0,.021,0,.033h0c0,.006,0,.011,0,.017h1.121a.958.958,0,0,1,.063-.374.615.615,0,0,1,.169-.24.681.681,0,0,1,.239-.134,1.209,1.209,0,0,1,.275-.036.7.7,0,0,1,.55.212.8.8,0,0,1,.19.557.884.884,0,0,1-.078.374,1.324,1.324,0,0,1-.24.366l-2.292,2.658V58.7h3.73V57.691Z" transform="translate(-233.131 -47.08)" fill="#afafaf"/>
  <path id="Path_2146" data-name="Path 2146" d="M424,229.377a1.6,1.6,0,0,0-.465-.432c-.032-.023-.061-.051-.094-.072a1.324,1.324,0,0,0,.707-1.258,1.771,1.771,0,0,0-.141-.705,1.56,1.56,0,0,0-.388-.557,1.8,1.8,0,0,0-.592-.36,2.022,2.022,0,0,0-.755-.134,2.227,2.227,0,0,0-.726.12,1.772,1.772,0,0,0-.585.345,1.579,1.579,0,0,0-.4.55,1.823,1.823,0,0,0-.155.671c0,.016-.006.03-.007.046h0c0,.006,0,.011,0,.017h1.121a.755.755,0,0,1,.226-.543.734.734,0,0,1,.529-.2.792.792,0,0,1,.529.2.752.752,0,0,1,.226.585.85.85,0,0,1-.184.55.718.718,0,0,1-.592.219h-.162v.973h.162a.781.781,0,0,1,.86.846.836.836,0,0,1-.232.635.851.851,0,0,1-.592.218,1.144,1.144,0,0,1-.317-.049.6.6,0,0,1-.261-.148.728.728,0,0,1-.184-.247,1.046,1.046,0,0,1-.077-.36h-1.121a1.925,1.925,0,0,0,.176.825,1.558,1.558,0,0,0,.437.557,1.772,1.772,0,0,0,.613.324,2.532,2.532,0,0,0,.733.106,2.594,2.594,0,0,0,.748-.113,1.783,1.783,0,0,0,.62-.345,1.6,1.6,0,0,0,.423-.571,1.983,1.983,0,0,0,.155-.8A1.551,1.551,0,0,0,424,229.377Z" transform="translate(-376.813 -202.479)" fill="#afafaf"/>
  <path id="Path_2147" data-name="Path 2147" d="M240.9,403.37a1.647,1.647,0,0,0-.522-.359,1.444,1.444,0,0,0-.592-.127,1.292,1.292,0,0,0-.233.021c-.05.009-.1.023-.144.036-.026,0-.049.008-.076.011l.868-1.723.4-.782H240.6l.008-.017h-1.227l-1.29,2.658a7.37,7.37,0,0,0-.36.818,2.3,2.3,0,0,0-.014,1.622,1.646,1.646,0,0,0,.409.6,1.81,1.81,0,0,0,.607.366,2.369,2.369,0,0,0,.755.12,2.193,2.193,0,0,0,.754-.127,1.688,1.688,0,0,0,1.008-.973,2.079,2.079,0,0,0,.148-.811,2.011,2.011,0,0,0-.134-.761A1.788,1.788,0,0,0,240.9,403.37Zm-1.417,2.235a.754.754,0,0,1-.571-.233.918.918,0,0,1-.226-.663.93.93,0,0,1,.226-.663.809.809,0,0,1,1.149.014.934.934,0,0,1,.211.649.916.916,0,0,1-.219.663A.776.776,0,0,1,239.488,405.605Z" transform="translate(-212.984 -358.979)" fill="#afafaf"/>
  <path id="Path_2148" data-name="Path 2148" d="M60.482,228.845a2.329,2.329,0,0,0,.148-.818,2.077,2.077,0,0,0-.148-.811,1.549,1.549,0,0,0-.4-.592,1.6,1.6,0,0,0-.607-.366,2.3,2.3,0,0,0-1.509,0,1.787,1.787,0,0,0-.607.373,1.825,1.825,0,0,0-.4.607,2.086,2.086,0,0,0-.148.8,2.019,2.019,0,0,0,.134.769,1.76,1.76,0,0,0,.367.564,1.532,1.532,0,0,0,.514.36,1.506,1.506,0,0,0,.606.127,1.312,1.312,0,0,0,.226-.021.8.8,0,0,0,.144-.036c.026,0,.047-.008.077-.011l-.871,1.727-.4.777h.008l-.008.017h1.22l1.3-2.651A8.932,8.932,0,0,0,60.482,228.845Zm-1.763-1.706a.765.765,0,0,1,.571.233,1.113,1.113,0,0,1,0,1.325.765.765,0,0,1-.571.233.742.742,0,0,1-.578-.239.965.965,0,0,1-.211-.656.916.916,0,0,1,.218-.663A.765.765,0,0,1,58.72,227.138Z" transform="translate(-50.928 -202.722)" fill="#afafaf"/>
  <path id="Path_2149" data-name="Path 2149" d="M339.633,402a.241.241,0,0,0-.1-.077l0,0a.207.207,0,0,0-.112-.03h0l-.005,0a.227.227,0,0,0-.119.016.252.252,0,0,0-.091.339l1.523,2.637a.259.259,0,0,0,.219.12.231.231,0,0,0,.12-.028.245.245,0,0,0,.092-.339Z" transform="translate(-304.062 -360.289)" fill="#afafaf"/>
  <path id="Path_2150" data-name="Path 2150" d="M154.957,83.062a.246.246,0,0,0,.211.127.283.283,0,0,0,.127-.036.258.258,0,0,0,.092-.339l-1.523-2.637a.231.231,0,0,0-.1-.073l0,0a.238.238,0,0,0-.237-.016.245.245,0,0,0-.091.338Z" transform="translate(-137.52 -71.774)" fill="#afafaf"/>
  <path id="Path_2151" data-name="Path 2151" d="M402.135,339.315a.223.223,0,0,0-.119-.016l0,0h0a.212.212,0,0,0-.112.031l0,0a.239.239,0,0,0-.1.077.243.243,0,0,0,.092.332l2.637,1.522a.217.217,0,0,0,.127.036.24.24,0,0,0,.211-.12.244.244,0,0,0-.092-.339Z" transform="translate(-360.176 -304.174)" fill="#afafaf"/>
  <path id="Path_2152" data-name="Path 2152" d="M80.405,153.539a.231.231,0,0,0-.114-.013h0a.232.232,0,0,0-.215.105.249.249,0,0,0,.084.339l2.644,1.523a.238.238,0,0,0,.12.035.233.233,0,0,0,.211-.127.241.241,0,0,0-.085-.331Z" transform="translate(-71.754 -137.633)" fill="#afafaf"/>
  <path id="Path_2153" data-name="Path 2153" d="M402.015,155.524a.238.238,0,0,0,.12-.035l2.637-1.523a.235.235,0,0,0-.127-.444h0a.245.245,0,0,0-.118.013l-2.637,1.531a.243.243,0,0,0-.092.331A.251.251,0,0,0,402.015,155.524Z" transform="translate(-360.176 -137.63)" fill="#afafaf"/>
  <path id="Path_2154" data-name="Path 2154" d="M83.044,339.334l-.008-.006a.2.2,0,0,0-.11-.03h0l-.006,0a.212.212,0,0,0-.115.016l-2.644,1.523a.247.247,0,0,0-.084.339.239.239,0,0,0,.211.12.184.184,0,0,0,.12-.036l2.644-1.522a.241.241,0,0,0,.085-.332C83.115,339.369,83.077,339.355,83.044,339.334Z" transform="translate(-71.755 -304.174)" fill="#afafaf"/>
  <path id="Path_2155" data-name="Path 2155" d="M339.42,83.19a.254.254,0,0,0,.211-.127l1.523-2.637a.245.245,0,0,0-.092-.339.241.241,0,0,0-.238.015l0,0a.233.233,0,0,0-.1.074L339.2,82.816a.251.251,0,0,0,.091.338A.287.287,0,0,0,339.42,83.19Z" transform="translate(-304.061 -71.775)" fill="#afafaf"/>
  <path id="Path_2156" data-name="Path 2156" d="M155.177,401.892l-.005,0h0a.213.213,0,0,0-.113.03h0a.243.243,0,0,0-.1.078l-1.523,2.637a.246.246,0,0,0,.091.339.234.234,0,0,0,.12.028.259.259,0,0,0,.218-.12l1.523-2.637a.258.258,0,0,0-.092-.339A.227.227,0,0,0,155.177,401.892Z" transform="translate(-137.52 -360.288)" fill="#afafaf"/>
  <path id="Path_2157" data-name="Path 2157" d="M268.983,173.989l0,0-.011.013a3.142,3.142,0,0,1,1.551,1.438l5.492-5.93a1.06,1.06,0,0,0-1.558-1.438l-4.094,4.427Z" transform="translate(-241.133 -150.371)" fill="#afafaf"/>
  <path id="Path_2158" data-name="Path 2158" d="M277.8,275.914l-1.028-.936v0l-.012-.011a2.4,2.4,0,0,1-.176.211,2.135,2.135,0,0,1-.3.27l-.009.007h0l-.012.011,9.469,8.595a.324.324,0,0,0,.233.092.367.367,0,0,0,.26-.113.354.354,0,0,0-.021-.5Z" transform="translate(-247.667 -246.505)" fill="#afafaf"/>
  <path id="Path_2159" data-name="Path 2159" d="M139.111,257.576c0-.057-.021-.109-.021-.166h0s0,0,0,0v-.014l-9.61,2.94a.7.7,0,0,0,.211,1.375.713.713,0,0,0,.2-.028l7.942-2.425,1.6-.486s0,0,0,0l.016,0A3.076,3.076,0,0,1,139.111,257.576Z" transform="translate(-115.627 -230.75)" fill="#afafaf"/>
  <path id="Path_2160" data-name="Path 2160" d="M238.888,240.333c.028,0,.057-.007.085-.007a2.035,2.035,0,0,0,1.121-.381,2.087,2.087,0,0,0,.5-.493,2.049,2.049,0,0,0,.387-1.3,1.872,1.872,0,0,0-.091-.528,2.074,2.074,0,0,0-1.558-1.432,1.839,1.839,0,0,0-.444-.049h-.078a2.093,2.093,0,0,0-2,1.875,2.166,2.166,0,0,0,.339,1.375A2.089,2.089,0,0,0,238.888,240.333Z" transform="translate(-212.286 -211.7)" fill="#afafaf"/>
</svg>
