<svg xmlns="http://www.w3.org/2000/svg" width="44.5" height="50.857" viewBox="0 0 44.5 50.857">
  <path id="Icon_awesome-address-book" data-name="Icon awesome-address-book" d="M43.308,15.893A1.2,1.2,0,0,0,44.5,14.7V10.728a1.2,1.2,0,0,0-1.192-1.192H41.321V4.768A4.769,4.769,0,0,0,36.554,0H4.768A4.769,4.769,0,0,0,0,4.768V46.089a4.769,4.769,0,0,0,4.768,4.768H36.554a4.769,4.769,0,0,0,4.768-4.768V41.321h1.987A1.2,1.2,0,0,0,44.5,40.129V36.156a1.2,1.2,0,0,0-1.192-1.192H41.321V28.607h1.987A1.2,1.2,0,0,0,44.5,27.415V23.442a1.2,1.2,0,0,0-1.192-1.192H41.321V15.893ZM20.661,12.714A6.357,6.357,0,1,1,14.3,19.071,6.363,6.363,0,0,1,20.661,12.714ZM31.786,36.236a2.083,2.083,0,0,1-2.225,1.907h-17.8a2.083,2.083,0,0,1-2.225-1.907V34.329c0-3.159,2.99-5.721,6.675-5.721h.5a10.231,10.231,0,0,0,7.907,0h.5c3.685,0,6.675,2.563,6.675,5.721Z"/>
</svg>
