<svg xmlns="http://www.w3.org/2000/svg" width="46" height="49.377" viewBox="0 0 61.22 42.733">
  <g id="Group_4389" data-name="Group 4389" transform="translate(0 -77.302)">
    <path id="Path_2130" data-name="Path 2130" d="M228.721,229.475l0,0-.009-.011L227.2,230.7l-.573.465-.334.257,0-.087-.084-2.382-.08-2.233-.035-1.191,0-.174,0,0v-.006l-.008.007v-.019l-1.981,1.633.111,3.133.013.383.039,1.072.005.227,0,.036-1.3-.3-.373-.085-3.055-.708-1.228,1.012-.646.523-.1.079h0l-.005,0,.011,0-.014.011,3.522.817,2.322.539.063.014.036.02-2.384,1.965,0,0h0l-.015.012.812.985h0l.013.014,3.034-2.5.919,1.115-3.017,2.485,0,0h0l-.014.012.812.985h0l.012.014,3.034-2.5,2.126,2.58,1.523-1.255h0l.015-.012-2.126-2.579,3.036-2.5-.814-.988,0,0-.009-.011-3.036,2.5-.919-1.115,3.019-2.487,0,0h0l.014-.012Z" transform="translate(-191.546 -130.34)" fill="#afafaf"/>
    <path id="Path_2131" data-name="Path 2131" d="M344.332,213.7l4.744-3.909-.517-.627-4.716,3.886-.013.011h0l-.014.012Z" transform="translate(-302.706 -116.098)" fill="#afafaf"/>
    <path id="Path_2132" data-name="Path 2132" d="M59.734,112.432H51.62l-6.229-.015,15.14-12.48a1.912,1.912,0,0,0,.249-2.688L44.926,78a1.914,1.914,0,0,0-2.688-.261L7.591,106.271a1.928,1.928,0,0,0-.261,2.7l1.74,2.113,1.094,1.347H1.481A1.479,1.479,0,0,0,0,113.925v4.629a1.476,1.476,0,0,0,1.481,1.481H59.734a1.476,1.476,0,0,0,1.481-1.481v-4.629A1.479,1.479,0,0,0,59.734,112.432ZM38.382,86.759a8.6,8.6,0,0,0,1.024.619c.077.04.153.084.231.121.218.1.438.2.662.284.062.023.126.042.189.064a8.668,8.668,0,0,0,1.223.337c.1.019.194.035.292.051a8.807,8.807,0,0,0,1.2.11c.064,0,.129.008.194.008.02,0,.04,0,.06,0a8.735,8.735,0,0,0,.994-.066l.2-.028a8.624,8.624,0,0,0,.968-.193c.065-.017.129-.039.194-.058a8.732,8.732,0,0,0,.941-.319c.116-.048.226-.111.341-.164.237-.111.479-.207.709-.341l4.5,5.475a8.766,8.766,0,0,0-.983,10.18l-11.648,9.6H30.614l-6.967-.015,3.562-2.935-.516-.626-4.34,3.576H18.609l-1.965-.01a8.721,8.721,0,0,0,.132-9.037L37.633,86.2c.14.124.3.219.443.332C38.177,86.608,38.278,86.685,38.382,86.759Z" transform="translate(0 0)" fill="#afafaf"/>
  </g>
</svg>
