<svg xmlns="http://www.w3.org/2000/svg" width="57.581" height="46.061" viewBox="0 0 57.581 46.061">
  <path id="Icon_awesome-hands-helping" data-name="Icon awesome-hands-helping" d="M43.906,17.274H30.23v5.038a6.478,6.478,0,0,1-12.956,0V11.372l-5.839,3.509a5.746,5.746,0,0,0-2.8,4.93v4.256l-7.2,4.157A2.872,2.872,0,0,0,.387,32.155l7.2,12.47a2.88,2.88,0,0,0,3.932,1.053l9.3-5.371h12.29a5.763,5.763,0,0,0,5.758-5.758h1.44a2.876,2.876,0,0,0,2.879-2.879V25.911h.72a2.154,2.154,0,0,0,2.159-2.159V19.433A2.154,2.154,0,0,0,43.906,17.274Zm13.289-3.365L50,1.439A2.88,2.88,0,0,0,46.065.386l-9.3,5.371H27.567a5.8,5.8,0,0,0-3.05.873L21.5,8.511a2.86,2.86,0,0,0-1.35,2.438V22.312a3.6,3.6,0,0,0,7.2,0V14.395H43.906a5.042,5.042,0,0,1,5.038,5.038V22l7.2-4.157a2.882,2.882,0,0,0,1.053-3.932Z" transform="translate(0.002 -0.002)"/>
</svg>
