<svg xmlns="http://www.w3.org/2000/svg" width="29.411" height="25" viewBox="0 0 29.411 25">
  <g id="Group_3740" data-name="Group 3740" transform="translate(-170 -311.772)">
    <path id="Path_288" data-name="Path 288" d="M199.411,319.25v1.724c-.037.186-.088.37-.108.557a14.944,14.944,0,0,1-2.759,7.205c-2.813,3.94-6.753,6.309-11.2,7.936a2.111,2.111,0,0,1-1.331-.014,25.775,25.775,0,0,1-7.472-4.073,16.479,16.479,0,0,1-5.853-8.313c-.314-1.075-.463-2.2-.687-3.3V319.25a3.448,3.448,0,0,0,.138-.421,8.086,8.086,0,0,1,5.228-6.466,8.25,8.25,0,0,1,8.872,1.835c.152.134.3.27.462.412.36-.315.665-.6.992-.864a8.281,8.281,0,0,1,13.118,3.431C199.065,317.847,199.214,318.558,199.411,319.25Zm-25.708.942a11.723,11.723,0,0,0,3.179,7.7,21.052,21.052,0,0,0,6.471,4.574,2.545,2.545,0,0,0,2.73-.025c.354-.223.757-.368,1.128-.565a17.366,17.366,0,0,0,6.273-5.17,10.612,10.612,0,0,0,2.162-7.144,4.5,4.5,0,0,0-6.367-3.629,9.065,9.065,0,0,0-3.524,3.363c-.844,1.342-1.259,1.348-2.084.019-.061-.1-.123-.194-.185-.29a9.046,9.046,0,0,0-2.778-2.776,4.226,4.226,0,0,0-4.76-.1A4.531,4.531,0,0,0,173.7,320.192Z" fill="#cb3a82"/>
    <path id="Path_289" data-name="Path 289" d="M202.234,348.635a4.531,4.531,0,0,1,2.244-4.043,4.226,4.226,0,0,1,4.76.1,9.047,9.047,0,0,1,2.778,2.776c.062.1.125.193.185.29.825,1.329,1.24,1.323,2.084-.019a9.064,9.064,0,0,1,3.524-3.363,4.5,4.5,0,0,1,6.367,3.629,10.612,10.612,0,0,1-2.161,7.144,17.366,17.366,0,0,1-6.273,5.17c-.371.2-.774.342-1.128.565a2.545,2.545,0,0,1-2.73.025,21.053,21.053,0,0,1-6.471-4.574A11.723,11.723,0,0,1,202.234,348.635Z" transform="translate(-28.531 -28.443)" fill="#fff"/>
  </g>
</svg>
