<svg xmlns="http://www.w3.org/2000/svg" width="21.905" height="20.806" viewBox="0 0 21.905 20.806">
  <g id="Group_2755" data-name="Group 2755" transform="translate(-851.895 -939.096)">
    <path id="Icon_awesome-hand-holding-heart" data-name="Icon awesome-hand-holding-heart" d="M10.469,10.178a.634.634,0,0,0,.97,0l4.141-4.64A3.53,3.53,0,0,0,15.367.71a2.761,2.761,0,0,0-3.989.313l-.426.475-.422-.471A2.758,2.758,0,0,0,6.541.71a3.534,3.534,0,0,0-.213,4.827ZM21.5,13.331a1.2,1.2,0,0,0-1.62,0l-3.514,3a2.326,2.326,0,0,1-1.521.569h-4.5a.652.652,0,0,1,0-1.3h2.978a1.3,1.3,0,0,0,.065-2.6H7.3a4.3,4.3,0,0,0-2.818,1.069L2.715,15.6H.608a.632.632,0,0,0-.608.65v3.9a.632.632,0,0,0,.608.65H14.177a2.34,2.34,0,0,0,1.521-.569l5.75-4.917A1.358,1.358,0,0,0,21.5,13.331Z" transform="translate(851.895 939.098)"/>
  </g>
</svg>
