<svg xmlns="http://www.w3.org/2000/svg" width="18.794" height="17.31" viewBox="0 0 18.794 17.31">
  <g id="Group_2756" data-name="Group 2756" transform="translate(-503.666 -940.846)">
    <path id="Icon_awesome-leaf" data-name="Icon awesome-leaf" d="M15.648.277a.446.446,0,0,0-.811-.034,4.912,4.912,0,0,1-4.294,2.506H8.252a5.5,5.5,0,0,0-5.5,5.5,5.664,5.664,0,0,0,.043.587A13.7,13.7,0,0,1,11,6.415a.458.458,0,1,1,0,.917C3.8,7.332.747,11.746.071,13.4a.918.918,0,0,0,1.7.7,7.536,7.536,0,0,1,2.06-2.6,5.488,5.488,0,0,0,5.01,2.211c4.5-.327,7.662-4.36,7.662-9.3A10.416,10.416,0,0,0,15.648.277Z" transform="matrix(0.985, -0.174, 0.174, 0.985, 503.662, 943.713)"/>
  </g>
</svg>
