<svg xmlns="http://www.w3.org/2000/svg" width="13.595" height="20.672" viewBox="0 0 13.595 20.672">
  <g id="Group_1977" data-name="Group 1977" transform="translate(-230.121 -276.744)">
    <path id="Path_283" data-name="Path 283" d="M237.318,276.744c.383.07.77.122,1.148.212a6.8,6.8,0,0,1,5.206,7.45,15.749,15.749,0,0,1-1.531,5,39.268,39.268,0,0,1-5.114,7.893,1.252,1.252,0,0,1-.139.116c-.391-.5-.788-.982-1.165-1.483a34.949,34.949,0,0,1-4.432-7.413,12.881,12.881,0,0,1-1.17-4.842,6.689,6.689,0,0,1,4.32-6.419,16.872,16.872,0,0,1,2.067-.516Zm-.425,9.908a3.083,3.083,0,1,0-3.063-3.078A3.106,3.106,0,0,0,236.893,286.652Z" fill="#ef88b5"/>
    <path id="Path_284" data-name="Path 284" d="M279,329.125a3.083,3.083,0,1,1,3.1-3.079A3.107,3.107,0,0,1,279,329.125Z" transform="translate(-42.103 -42.473)" fill="#fff"/>
  </g>
</svg>
