<svg xmlns="http://www.w3.org/2000/svg" width="46" height="49.377" viewBox="0 0 75.712 43.685">
  <g id="Group_4388" data-name="Group 4388" transform="translate(0 -108.291)">
    <path id="Path_2127" data-name="Path 2127" d="M300.227,108.291a16.012,16.012,0,0,0-14.966,10.318.011.011,0,0,1,0,.006,15.685,15.685,0,0,0-.677,2.329c-.128.561-.238,1.128-.321,1.7l-.011-.005a.007.007,0,0,1,0,.005l-1.983,9.345,5.969,2.624v5.215a2.156,2.156,0,0,0,2.371,2.145l8.2-.3.283-.01v10.311h.057l11.882-6.781v-9.079c.171-.156.339-.315.5-.478a16.008,16.008,0,0,0-11.3-27.347Z" transform="translate(-240.523 0)" fill="#afafaf"/>
    <path id="Path_2128" data-name="Path 2128" d="M34.018,188.942v-8.174a6.235,6.235,0,0,0-6.229-6.227H6.229A6.235,6.235,0,0,0,0,180.768v19.788a6.235,6.235,0,0,0,6.229,6.228H27.789a6.235,6.235,0,0,0,6.229-6.228v-1.539l5.811-3.355,2.9-1.662-.012-.007.024-.014Zm1.268,5.045-4.992,2.882v3.688a2.508,2.508,0,0,1-2.505,2.5H6.229a2.507,2.507,0,0,1-2.505-2.5V180.768a2.507,2.507,0,0,1,2.505-2.5H27.789a2.507,2.507,0,0,1,2.505,2.5v10.322l3.35,1.934Z" transform="translate(0 -56.453)" fill="#afafaf"/>
    <path id="Path_2129" data-name="Path 2129" d="M84.931,230.611H82.138v4.833H79.813l-1-.01,3.758-7.516,1.687-3.351h-.012l.012-.024H81.088l-5.451,10.9v2.748h6.5v2.256h2.793v-2.256h1.451v-2.748H84.931Z" transform="translate(-64.452 -99.06)" fill="#afafaf"/>
  </g>
</svg>
