<svg xmlns="http://www.w3.org/2000/svg" width="38.303" height="33.515" viewBox="0 0 38.303 33.515">
  <path id="Icon_awesome-comment-dots" data-name="Icon awesome-comment-dots" d="M19.151,2.25C8.573,2.25,0,9.215,0,17.811a13.811,13.811,0,0,0,4.264,9.778,19.032,19.032,0,0,1-4.1,7.167.6.6,0,0,0-.112.651.586.586,0,0,0,.546.359A17.109,17.109,0,0,0,11.117,31.92a22.815,22.815,0,0,0,8.035,1.451c10.578,0,19.151-6.965,19.151-15.561S29.73,2.25,19.151,2.25ZM9.576,20.2a2.394,2.394,0,1,1,2.394-2.394A2.391,2.391,0,0,1,9.576,20.2Zm9.576,0a2.394,2.394,0,1,1,2.394-2.394A2.391,2.391,0,0,1,19.151,20.2Zm9.576,0a2.394,2.394,0,1,1,2.394-2.394A2.391,2.391,0,0,1,28.727,20.2Z" transform="translate(0 -2.25)" fill="#333"/>
</svg>
