<svg xmlns="http://www.w3.org/2000/svg" width="46.631" height="46.954" viewBox="0 0 46.631 46.954">
  <g id="Group_4386" data-name="Group 4386" transform="translate(-1.768)">
    <path id="Path_2117" data-name="Path 2117" d="M45.016,0H13.589V.123H7.308a5.543,5.543,0,0,0-5.54,5.54V41.414a5.543,5.543,0,0,0,5.54,5.54h30.81a5.544,5.544,0,0,0,5.541-5.54v-21.5a4.864,4.864,0,0,0,4.739-4.85V3.382A3.382,3.382,0,0,0,45.016,0ZM5.437,5.663A1.875,1.875,0,0,1,7.308,3.792h30.81a1.875,1.875,0,0,1,1.871,1.871V41.414a1.871,1.871,0,0,1-1.871,1.871H7.308a1.871,1.871,0,0,1-1.871-1.871Z" transform="translate(0)" fill="#afafaf"/>
    <path id="Path_2118" data-name="Path 2118" d="M475.068,229.527h-.312v14.916a4.178,4.178,0,0,0,1.861-.972c.078-.071.144-.153.217-.229s.178-.176.256-.273c.052-.066.093-.14.141-.208a4.173,4.173,0,0,0,.779-2.416v-7.877A2.939,2.939,0,0,0,475.068,229.527Z" transform="translate(-429.611 -208.478)" fill="#afafaf"/>
    <rect id="Rectangle_3360" data-name="Rectangle 3360" width="23.85" height="1.951" transform="translate(10.788 9.724)" fill="#afafaf"/>
    <rect id="Rectangle_3361" data-name="Rectangle 3361" width="23.85" height="1.951" transform="translate(10.788 16.145)" fill="#afafaf"/>
    <path id="Path_2119" data-name="Path 2119" d="M123.977,246.066h-23.85v1.951h23.85Z" transform="translate(-89.339 -223.5)" fill="#afafaf"/>
    <rect id="Rectangle_3362" data-name="Rectangle 3362" width="23.85" height="1.951" transform="translate(10.788 28.988)" fill="#afafaf"/>
    <rect id="Rectangle_3363" data-name="Rectangle 3363" width="23.85" height="1.951" transform="translate(10.788 35.409)" fill="#afafaf"/>
  </g>
</svg>
