<svg xmlns="http://www.w3.org/2000/svg" width="45.874" height="54.123" viewBox="0 0 45.874 54.123">
  <g id="Group_4390" data-name="Group 4390" transform="translate(-39.02)">
    <path id="Path_2133" data-name="Path 2133" d="M82.07,0H39.02V49.146A4.982,4.982,0,0,0,44,54.123H79.917a4.982,4.982,0,0,0,4.976-4.977V0ZM41.843,7.161V2.823H82.07V7.161ZM79.917,51.3H44a2.154,2.154,0,0,1-2.154-2.154V9.419H82.07V49.146A2.153,2.153,0,0,1,79.917,51.3Z" fill="#afafaf"/>
    <path id="Path_2134" data-name="Path 2134" d="M124.707,140.726l-.008.008-2.426-2.426-1.5,1.5-.03.03h0l-.01.01,3.966,3.965,6.053-6.12-1.535-1.536Z" transform="translate(-73.08 -121.76)" fill="#afafaf"/>
    <path id="Path_2135" data-name="Path 2135" d="M285.144,148.33v.005h0v.014h11.218v-1.513H285.144Z" transform="translate(-220.107 -131.314)" fill="#afafaf"/>
    <path id="Path_2136" data-name="Path 2136" d="M285.144,256.092v.005h0v.014h11.218V254.6H285.144Z" transform="translate(-220.107 -227.685)" fill="#afafaf"/>
    <path id="Path_2137" data-name="Path 2137" d="M124.7,356.262l-2.391-2.392-.024-.025h0l-.01-.01-1.522,1.522,0,0h0l-.01.01,3.966,3.965,6.053-6.121-1.535-1.536Z" transform="translate(-73.08 -314.504)" fill="#afafaf"/>
    <path id="Path_2138" data-name="Path 2138" d="M290.753,192.764l-5.595-.014-.014,1.5h5.595Z" transform="translate(-220.107 -172.375)" fill="#afafaf"/>
    <path id="Path_2139" data-name="Path 2139" d="M129.231,243.928h0l-.01-.01-4.468,4.527-.055.055-2.4-2.4-.013-.013h0l-.01-.01-1.506,1.506-.019.019h0l-.01.01,3.966,3.965,6-6.067.043-.043h0l.01-.01-1.522-1.522Z" transform="translate(-73.08 -218.134)" fill="#afafaf"/>
    <path id="Path_2140" data-name="Path 2140" d="M290.753,300.53l-5.595-.014-.014,1.5h5.595Z" transform="translate(-220.107 -268.749)" fill="#afafaf"/>
    <path id="Path_2141" data-name="Path 2141" d="M285.158,362.359h-.014v1.5h0v.014h11.218v-1.513h-11.2Z" transform="translate(-220.107 -324.055)" fill="#afafaf"/>
    <path id="Path_2142" data-name="Path 2142" d="M285.144,409.774h5.595l.014-1.485-5.595-.014Z" transform="translate(-220.107 -365.116)" fill="#afafaf"/>
  </g>
</svg>
