<svg xmlns="http://www.w3.org/2000/svg" width="49.109" height="56.124" viewBox="0 0 49.109 56.124">
  <path id="Icon_awesome-bell" data-name="Icon awesome-bell" d="M24.554,56.124a7.014,7.014,0,0,0,7.012-7.016H17.542A7.014,7.014,0,0,0,24.554,56.124ZM48.165,39.713c-2.118-2.276-6.081-5.7-6.081-16.913A17.31,17.31,0,0,0,28.06,5.792V3.508a3.506,3.506,0,1,0-7.011,0V5.792A17.31,17.31,0,0,0,7.024,22.8c0,11.214-3.963,14.637-6.081,16.913A3.425,3.425,0,0,0,0,42.093,3.511,3.511,0,0,0,3.519,45.6H45.59a3.51,3.51,0,0,0,3.519-3.508A3.423,3.423,0,0,0,48.165,39.713Z" transform="translate(0)" fill="#333"/>
</svg>
