<svg xmlns="http://www.w3.org/2000/svg" width="30.725" height="33.992" viewBox="0 0 30.725 33.992">
  <path id="Icon_awesome-bell" data-name="Icon awesome-bell" d="M15.362,33.992a4.32,4.32,0,0,0,4.387-4.249H10.975A4.32,4.32,0,0,0,15.362,33.992Zm14.772-9.939c-1.325-1.378-3.8-3.452-3.8-10.243a10.579,10.579,0,0,0-8.774-10.3V2.125a2.194,2.194,0,0,0-4.387,0V3.508a10.579,10.579,0,0,0-8.774,10.3c0,6.792-2.479,8.865-3.8,10.243A2.038,2.038,0,0,0,0,25.494a2.162,2.162,0,0,0,2.2,2.125H28.523a2.161,2.161,0,0,0,2.2-2.125A2.037,2.037,0,0,0,30.134,24.053Z" transform="translate(0)" fill="#333"/>
</svg>
