<svg xmlns="http://www.w3.org/2000/svg" width="11.625" height="15.5" viewBox="0 0 11.625 15.5">
  <path id="Icon_awesome-file-pdf" data-name="Icon awesome-file-pdf" d="M5.507,7.753a2.921,2.921,0,0,1-.061-1.42C5.7,6.333,5.676,7.45,5.507,7.753ZM5.455,9.182a13.969,13.969,0,0,1-.86,1.9,11.148,11.148,0,0,1,1.9-.663A3.922,3.922,0,0,1,5.455,9.182ZM2.607,12.96c0,.024.4-.163,1.057-1.217A4.184,4.184,0,0,0,2.607,12.96Zm4.9-8.116h4.117v9.93a.725.725,0,0,1-.727.727H.727A.725.725,0,0,1,0,14.773V.727A.725.725,0,0,1,.727,0H6.781V4.117A.729.729,0,0,0,7.508,4.844Zm-.242,5.2A3.038,3.038,0,0,1,5.973,8.416a4.351,4.351,0,0,0,.188-1.944.758.758,0,0,0-1.447-.206A5.034,5.034,0,0,0,4.959,8.6a28.427,28.427,0,0,1-1.235,2.6s0,0-.006,0c-.82.421-2.228,1.347-1.65,2.059a.941.941,0,0,0,.651.3c.542,0,1.081-.545,1.85-1.871a17.256,17.256,0,0,1,2.392-.7,4.588,4.588,0,0,0,1.938.59.784.784,0,0,0,.6-1.314c-.421-.412-1.644-.294-2.228-.218Zm4.147-6.866L8.446.212A.726.726,0,0,0,7.932,0H7.75V3.875h3.875V3.69A.724.724,0,0,0,11.413,3.179ZM9.17,10.908c.124-.082-.076-.36-1.3-.272C9,11.113,9.17,10.908,9.17,10.908Z" fill="#cb3a82"/>
</svg>
