<svg xmlns="http://www.w3.org/2000/svg" width="24.984" height="25" viewBox="0 0 24.984 25">
  <g id="Group_2753" data-name="Group 2753" transform="translate(-1411.521 100.5)">
    <g id="虫眼鏡アイコン9" transform="translate(1411.852 -100)">
      <g id="Ellipse_29" data-name="Ellipse 29" transform="translate(1.148 1)" fill="#fff" stroke="#707070" stroke-width="1">
        <circle cx="7.5" cy="7.5" r="7.5" stroke="none"/>
        <circle cx="7.5" cy="7.5" r="7" fill="none"/>
      </g>
      <path id="Path_137" data-name="Path 137" d="M14.79,2.505a8.567,8.567,0,1,0,0,12.116A8.576,8.576,0,0,0,14.79,2.505ZM13.6,13.431a6.884,6.884,0,1,1,0-9.736A6.885,6.885,0,0,1,13.6,13.431Z" transform="translate(0 0)" fill="#4b4b4b" stroke="#707070" stroke-width="1"/>
      <path id="Path_138" data-name="Path 138" d="M79.021,110.144a5.367,5.367,0,0,0-.343,6.08.306.306,0,1,0,.522-.319,4.757,4.757,0,0,1,.3-5.385.306.306,0,0,0-.482-.376Z" transform="translate(-74.083 -104.869)" fill="#4b4b4b" stroke="#707070" stroke-width="1"/>
      <path id="Path_139" data-name="Path 139" d="M322.127,319.576l-6.217-6.056a.868.868,0,0,0-1.219.008l-.986.986a.866.866,0,0,0-.007,1.218l6.056,6.217a1.546,1.546,0,0,0,2.434.092A1.578,1.578,0,0,0,322.127,319.576Z" transform="translate(-298.596 -298.589)" fill="#4b4b4b" stroke="#707070" stroke-width="1"/>
    </g>
  </g>
</svg>
