<svg xmlns="http://www.w3.org/2000/svg" width="33.61" height="33.611" viewBox="0 0 33.61 33.611">
  <path id="Path_603" data-name="Path 603" d="M32.791,13.786l-3.666-.169a.862.862,0,0,1-.758-.532l-.755-1.818a.865.865,0,0,1,.161-.913L30.245,7.64a.866.866,0,0,0-.028-1.194L27.169,3.4a.866.866,0,0,0-1.195-.027L23.262,5.843a.864.864,0,0,1-.914.16L20.53,5.249A.862.862,0,0,1,20,4.49L19.829.825A.865.865,0,0,0,18.966,0H14.653a.865.865,0,0,0-.864.825L13.621,4.49a.862.862,0,0,1-.531.759L11.271,6a.863.863,0,0,1-.914-.16L7.644,3.37A.866.866,0,0,0,6.449,3.4L3.4,6.446A.864.864,0,0,0,3.374,7.64l2.473,2.713a.862.862,0,0,1,.159.913l-.753,1.818a.863.863,0,0,1-.759.532l-3.665.169A.864.864,0,0,0,0,14.649v4.313a.865.865,0,0,0,.825.863l3.665.169a.863.863,0,0,1,.759.532l.753,1.818a.862.862,0,0,1-.159.913L3.374,25.97A.865.865,0,0,0,3.4,27.164l3.051,3.049a.865.865,0,0,0,1.194.028l2.712-2.473a.865.865,0,0,1,.914-.16l1.818.753a.863.863,0,0,1,.531.76l.169,3.665a.866.866,0,0,0,.864.825h4.313a.865.865,0,0,0,.862-.825L20,29.121a.863.863,0,0,1,.531-.76l1.818-.753a.865.865,0,0,1,.914.16l2.712,2.473a.867.867,0,0,0,1.195-.028l3.048-3.049a.868.868,0,0,0,.028-1.195l-2.473-2.712a.863.863,0,0,1-.161-.913l.755-1.818a.861.861,0,0,1,.758-.532l3.666-.169a.864.864,0,0,0,.823-.863V14.649A.863.863,0,0,0,32.791,13.786ZM16.81,22.295A5.489,5.489,0,1,1,22.3,16.806,5.49,5.49,0,0,1,16.81,22.295Z" transform="translate(-0.004 0)" fill="#333"/>
</svg>
