<svg xmlns="http://www.w3.org/2000/svg" width="33" height="26.682" viewBox="0 0 33 26.682">
  <g id="Group_2752" data-name="Group 2752" transform="translate(-1220 101.501)">
    <g id="笑顔の赤ちゃんイラスト2" transform="translate(1220.5 -151.547)">
      <g id="Union_13" data-name="Union 13" transform="translate(-116 15)" fill="#fff">
        <path d="M 132.0003051757812 60.04570007324219 C 126.912353515625 60.04570007324219 122.3612518310547 56.95672988891602 120.6754837036133 52.35919189453125 L 120.5672760009766 52.06409072875977 L 120.2544479370117 52.03367233276367 C 118.9694366455078 51.9087028503418 118.0004043579102 50.83919143676758 118.0004043579102 49.54590225219727 C 118.0004043579102 48.44399261474609 118.7377471923828 47.45766067504883 119.7934951782227 47.14731979370117 L 120.0951080322266 47.05867004394531 L 120.1459121704102 46.74843215942383 C 120.5838241577148 44.07441329956055 122.0087661743164 41.62145233154297 124.1582183837891 39.84140014648438 C 126.3347244262695 38.0389518737793 129.1197662353516 37.04630279541016 132.0003051757812 37.04630279541016 C 134.8805084228516 37.04630279541016 137.6654205322266 38.03900146484375 139.842041015625 39.84152984619141 C 141.9916687011719 41.62171173095703 143.4167327880859 44.07472229003906 143.8546905517578 46.74869155883789 L 143.9055023193359 47.05883026123047 L 144.2070007324219 47.14754104614258 C 145.2628021240234 47.45817184448242 146.0001983642578 48.44441986083984 146.0001983642578 49.54590225219727 C 146.0001983642578 50.83877182006836 145.0310821533203 51.90825271606445 143.7459411621094 52.03359985351562 L 143.4332122802734 52.06410217285156 L 143.3250427246094 52.35910034179688 C 141.6390686035156 56.95669174194336 137.0880126953125 60.04570007324219 132.0003051757812 60.04570007324219 Z" stroke="none"/>
        <path d="M 132.0003051757812 59.54570007324219 C 136.8791351318359 59.54570007324219 141.2415466308594 56.58845138549805 142.8556213378906 52.18695068359375 L 143.0719604492188 51.59696960449219 L 143.6973876953125 51.53596115112305 C 144.7251586914062 51.43571090698242 145.5001983642578 50.58016967773438 145.5001983642578 49.54590225219727 C 145.5001983642578 48.6646728515625 144.9103851318359 47.87568283081055 144.0658721923828 47.62721252441406 L 143.4628753662109 47.44980239868164 L 143.3612823486328 46.82950973510742 C 142.9428253173828 44.27472305297852 141.5797424316406 41.92977142333984 139.5231323242188 40.22661972045898 C 137.4359893798828 38.49819183349609 134.7643280029297 37.54630279541016 132.0003051757812 37.54630279541016 C 129.2359466552734 37.54630279541016 126.5641555786133 38.49814224243164 124.4771270751953 40.22649002075195 C 122.4206924438477 41.92951202392578 121.057731628418 44.27441024780273 120.6393356323242 46.82923126220703 L 120.537727355957 47.44971084594727 L 119.9345016479492 47.62703323364258 C 119.0901260375977 47.8752326965332 118.5004043579102 48.66430282592773 118.5004043579102 49.54590225219727 C 118.5004043579102 50.58052062988281 119.2752838134766 51.43609237670898 120.3028335571289 51.5360221862793 L 120.9285125732422 51.59686279296875 L 121.1449279785156 52.18706130981445 C 122.7587814331055 56.5884895324707 127.121223449707 59.54570007324219 132.0003051757812 59.54570007324219 M 132.0003051757812 60.54570007324219 C 126.5518417358398 60.54570007324219 121.9177474975586 57.19956970214844 120.2060470581055 52.53132247924805 C 118.6871871948242 52.38360977172852 117.5004043579102 51.10359191894531 117.5004043579102 49.54590225219727 C 117.5004043579102 48.18339157104492 118.4084548950195 47.03330230712891 119.6524887084961 46.66762161254883 C 120.5917053222656 40.93255233764648 125.7621841430664 36.54630279541016 132.0003051757812 36.54630279541016 C 138.2376098632812 36.54630279541016 143.4087677001953 40.93280029296875 144.3481292724609 46.66786956787109 C 145.5919494628906 47.03382110595703 146.5001983642578 48.18369293212891 146.5001983642578 49.54590225219727 C 146.5001983642578 51.10329055786133 145.3130035400391 52.38312149047852 143.7944793701172 52.53124237060547 C 142.0825805664062 57.19950103759766 137.4480438232422 60.54570007324219 132.0003051757812 60.54570007324219 Z" stroke="none" fill="#707070"/>
      </g>
      <path id="Path_92" data-name="Path 92" d="M169.568,245.229a1.181,1.181,0,1,0-1.181,1.181A1.18,1.18,0,0,0,169.568,245.229Z" transform="translate(-156.756 -181.408)" fill="#4b4b4b" stroke="#707070" stroke-width="1"/>
      <path id="Path_93" data-name="Path 93" d="M308.191,244.048a1.181,1.181,0,1,0,1.181,1.181A1.181,1.181,0,0,0,308.191,244.048Z" transform="translate(-287.822 -181.408)" fill="#4b4b4b" stroke="#707070" stroke-width="1"/>
      <path id="Path_94" data-name="Path 94" d="M30.876,61.815a3.827,3.827,0,0,0-2.437-1.11,12.827,12.827,0,0,0-25.1.022,3.836,3.836,0,0,0,.5,7.64c.075,0,.145-.011.219-.015a12.829,12.829,0,0,0,23.676-.012,3.74,3.74,0,0,0,.43.028,3.838,3.838,0,0,0,2.714-6.551ZM17.8,52.486a2.471,2.471,0,0,1,.195.255,3.782,3.782,0,0,1,.563,2.146,9.125,9.125,0,0,1-.641,3.107,10.631,10.631,0,0,1-2.828-3.218,4.764,4.764,0,0,1-.62-2.208c0-.057,0-.1.005-.15a10.466,10.466,0,0,1,3.325.068ZM14.15,55.272A9.422,9.422,0,0,0,15.262,56.9c-.479-.194-.959-.375-1.409-.565a5.61,5.61,0,0,1-1.9-1.171,2.556,2.556,0,0,1-.541-.841,3.135,3.135,0,0,1-.2-.963,10.993,10.993,0,0,1,2.2-.75A5.844,5.844,0,0,0,14.15,55.272ZM29.624,65.99a2.052,2.052,0,0,1-2.146.486l-.838-.295-.292.839a11.07,11.07,0,0,1-20.893.057L5.18,66.3l-.795.218a2.065,2.065,0,1,1-.548-4.056c.036,0,.09,0,.165.009l.822.065.123-.815A11.091,11.091,0,0,1,10.2,53.89a3.939,3.939,0,0,0,.225.84A3.585,3.585,0,0,0,11.09,55.8a5.442,5.442,0,0,0,1.691,1.215c.933.459,1.941.776,2.788,1.171a5.665,5.665,0,0,1,1.117.656,2.642,2.642,0,0,1,.732.855.531.531,0,0,0,.954-.023,11.6,11.6,0,0,0,1.25-4.786,5.287,5.287,0,0,0-.375-2.042,11.041,11.041,0,0,1,7.592,8.9l.131.88.879-.134a2.13,2.13,0,0,1,.314-.027,2.066,2.066,0,0,1,1.461,3.527Z" transform="translate(0 0)" fill="#4b4b4b" stroke="#707070" stroke-width="1"/>
      <path id="Path_95" data-name="Path 95" d="M193.8,323.5a3.994,3.994,0,0,1-6.481,0,.62.62,0,0,0-1,.726,5.234,5.234,0,0,0,8.491,0,.62.62,0,0,0-1.005-.726Z" transform="translate(-174.558 -255.656)" fill="#4b4b4b" stroke="#707070" stroke-width="1"/>
    </g>
  </g>
</svg>
