<svg xmlns="http://www.w3.org/2000/svg" width="17.143" height="15" viewBox="0 0 17.143 15">
  <path id="Icon_awesome-comment-dots" data-name="Icon awesome-comment-dots" d="M8.571,2.25C3.837,2.25,0,5.367,0,9.214A6.181,6.181,0,0,0,1.908,13.59,8.518,8.518,0,0,1,.074,16.8a.266.266,0,0,0-.05.291.262.262,0,0,0,.244.161,7.657,7.657,0,0,0,4.708-1.721,10.211,10.211,0,0,0,3.6.65c4.734,0,8.571-3.117,8.571-6.964S13.306,2.25,8.571,2.25ZM4.286,10.286A1.071,1.071,0,1,1,5.357,9.214,1.07,1.07,0,0,1,4.286,10.286Zm4.286,0A1.071,1.071,0,1,1,9.643,9.214,1.07,1.07,0,0,1,8.571,10.286Zm4.286,0a1.071,1.071,0,1,1,1.071-1.071A1.07,1.07,0,0,1,12.857,10.286Z" transform="translate(0 -2.25)" fill="#333"/>
</svg>
