<svg xmlns="http://www.w3.org/2000/svg" width="15.413" height="17.427" viewBox="0 0 15.413 17.427">
  <g id="Group_4082" data-name="Group 4082" transform="translate(-116.321 -98.078)">
    <path id="Path_2101" data-name="Path 2101" d="M130.2,111.681l-3.1-1.266a1.456,1.456,0,0,1-.847-1.323v-.457a1.918,1.918,0,0,1,.106-.635s1.948-2.6,1.948-5c0-3-1.917-4.924-4.281-4.924S119.746,100,119.746,103c0,2.4,1.95,5,1.95,5a1.963,1.963,0,0,1,.106.635v.457a1.459,1.459,0,0,1-.849,1.323l-3.1,1.266a2.425,2.425,0,0,0-1.374,1.772l-.16,2.053h15.413l-.158-2.053A2.432,2.432,0,0,0,130.2,111.681Z" transform="translate(0)" fill="#333"/>
  </g>
</svg>
