<svg xmlns="http://www.w3.org/2000/svg" width="17.5" height="15" viewBox="0 0 17.5 15">
  <g id="Icon_ionic-ios-folder" data-name="Icon ionic-ios-folder" transform="translate(-2.25 -4.5)">
    <path id="Path_606" data-name="Path 606" d="M19.75,6.505a.834.834,0,0,0-.891-.839H8.77a.3.3,0,0,1-.238-.088l-.879-.82-.008-.007A.88.88,0,0,0,6.969,4.5H3.215a.9.9,0,0,0-.965.839V8.026c0,.058.066.055.117.026A.769.769,0,0,1,2.641,8H19.359a.769.769,0,0,1,.273.051c.051.029.117.033.117-.026Z" transform="translate(0)" fill="#cb3a82"/>
    <path id="Path_607" data-name="Path 607" d="M2.25,22.424A1.255,1.255,0,0,0,3.484,23.7H18.5a1.274,1.274,0,0,0,1.25-1.29V13.864a.637.637,0,0,0-.625-.645H2.875a.637.637,0,0,0-.625.645Z" transform="translate(0 -4.198)" fill="#cb3a82"/>
  </g>
</svg>
