<svg xmlns="http://www.w3.org/2000/svg" width="13.125" height="15" viewBox="0 0 13.125 15">
  <path id="Icon_awesome-book" data-name="Icon awesome-book" d="M13.125,10.547V.7a.7.7,0,0,0-.7-.7H2.812A2.813,2.813,0,0,0,0,2.812v9.375A2.813,2.813,0,0,0,2.812,15h9.609a.7.7,0,0,0,.7-.7v-.469a.709.709,0,0,0-.261-.548,6.533,6.533,0,0,1,0-2.188A.7.7,0,0,0,13.125,10.547ZM3.75,3.926a.176.176,0,0,1,.176-.176h6.211a.176.176,0,0,1,.176.176v.586a.176.176,0,0,1-.176.176H3.926a.176.176,0,0,1-.176-.176Zm0,1.875a.176.176,0,0,1,.176-.176h6.211a.176.176,0,0,1,.176.176v.586a.176.176,0,0,1-.176.176H3.926a.176.176,0,0,1-.176-.176Zm7.424,7.324H2.812a.938.938,0,0,1,0-1.875h8.361A10.547,10.547,0,0,0,11.174,13.125Z" fill="#cb3a82"/>
</svg>
