<svg xmlns="http://www.w3.org/2000/svg" width="16.946" height="16.946" viewBox="0 0 16.946 16.946">
  <g id="哺乳瓶のアイコン4" transform="translate(-0.003 0)">
    <path id="Path_2099" data-name="Path 2099" d="M221.491.519A1.671,1.671,0,0,0,219.1.484c-1.073,1.073-.253,1.443-.839,1.809-.6.376-1.227-.3-2.057-.4a3.068,3.068,0,0,0-1.8.277l-.062.031-.092-.092a.821.821,0,0,0-1.16,0l-.77.77a.82.82,0,0,0,0,1.161l.031.031.645.645.655.655,2.979,2.979.655.655.645.645.031.03a.821.821,0,0,0,1.161,0l.77-.77a.82.82,0,0,0,0-1.161l-.092-.092c.011-.02.021-.041.031-.062a3.066,3.066,0,0,0,.277-1.8c-.092-.83-.771-1.456-.4-2.057.366-.586.737.234,1.809-.839A1.671,1.671,0,0,0,221.491.519Zm-7.069,2.714c2.266-1.511,3.21.567,3.21.567Z" transform="translate(-205.061 0)" fill="#333"/>
    <path id="Path_2100" data-name="Path 2100" d="M5.076,134.075l1.779,1.779-.584.584-1.779-1.779-.875.875L5.4,137.313l-.583.583-1.779-1.779-.875.875,1.779,1.779-.583.583-1.779-1.779-.958.958a2.1,2.1,0,0,0,0,2.965l3.136,3.136a2.1,2.1,0,0,0,2.965,0l5.839-5.839-6.1-6.1Z" transform="translate(0 -128.303)" fill="#333"/>
  </g>
</svg>
