<svg xmlns="http://www.w3.org/2000/svg" width="18.525" height="27.672" viewBox="0 0 18.525 27.672">
  <g id="人物の無料素材" transform="translate(-84.617)">
    <path id="Path_597" data-name="Path 597" d="M130.487,14.6a7.218,7.218,0,0,0,7.13-7.3,7.132,7.132,0,1,0-14.261,0A7.217,7.217,0,0,0,130.487,14.6Z" transform="translate(-36.608)" fill="#333"/>
    <path id="Path_598" data-name="Path 598" d="M103.061,287.885a14.127,14.127,0,0,0-3.11-5.915.9.9,0,0,0-1.054-.079,9.386,9.386,0,0,1-10.033,0,.9.9,0,0,0-1.054.079,14.129,14.129,0,0,0-3.11,5.915c-.786,4.807,4.256,6.544,9.181,6.544S103.847,292.692,103.061,287.885Z" transform="translate(0 -266.757)" fill="#333"/>
  </g>
</svg>
